<svg width="111" height="49" viewBox="0 0 111 49" fill="none" xmlns="http://www.w3.org/2000/svg">
<path d="M86.043 13.8401C86.7847 13.1042 88.5823 11.6324 89.8389 11.6324C91.8023 11.3105 95.7291 12.005 95.7291 17.3586V34.1232" stroke="black" stroke-width="3"/>
<path d="M49.9515 0.751953V30.6065C49.8631 31.1373 50.0577 32.1988 51.5438 32.1988H63.2865" stroke="black" stroke-width="3"/>
<path d="M42.3906 11.0352L42.3906 34.1227" stroke="black" stroke-width="3"/>
<path d="M68.1979 23.3742H74.0361C75.4736 23.3079 78.3485 22.1004 78.3485 17.8013C78.4812 15.8774 77.5125 12.0295 72.5766 12.0295C70.6526 11.8304 66.8047 12.7062 66.8047 17.8013V26.5587C66.8047 28.4827 67.9591 32.3306 72.5766 32.3306C73.8371 32.3748 76.7562 31.8131 78.3485 29.2124" stroke="black" stroke-width="3"/>
<path d="M95.9968 21.8401C94.9737 20.8975 92.3804 19.0123 90.1919 19.0123C88.2347 18.8709 84.3203 19.592 84.3203 23.6074V28.6266C85.1432 30.9595 88.4171 34.6214 94.9292 30.606" stroke="black" stroke-width="3"/>
<path d="M110.326 2.01317C108.203 1.96733 103.957 2.9895 103.957 7.44486V34.122" stroke="black" stroke-width="3"/>
<path d="M109.929 17.4707H105.086" stroke="black" stroke-width="3"/>
<circle cx="42.3224" cy="6.8556" r="1.92396" fill="black"/>
<path d="M43.0619 44.3759C42.6712 44.3759 42.3202 44.3079 42.0089 44.172C41.7031 44.0305 41.4625 43.838 41.287 43.5946C41.1115 43.3455 41.021 43.0596 41.0153 42.7369H41.839C41.8673 43.0143 41.9805 43.2492 42.1787 43.4417C42.3825 43.6286 42.6769 43.722 43.0619 43.722C43.4298 43.722 43.7186 43.6314 43.928 43.4502C44.1432 43.2634 44.2507 43.0256 44.2507 42.7369C44.2507 42.5104 44.1885 42.3265 44.0639 42.1849C43.9394 42.0434 43.7837 41.9358 43.5969 41.8622C43.41 41.7886 43.1581 41.7094 42.8411 41.6244C42.4504 41.5225 42.1362 41.4206 41.8985 41.3187C41.6663 41.2168 41.4654 41.0583 41.2955 40.8432C41.1313 40.6224 41.0493 40.328 41.0493 39.96C41.0493 39.6373 41.1313 39.3514 41.2955 39.1023C41.4597 38.8532 41.689 38.6607 41.9834 38.5249C42.2834 38.389 42.6259 38.3211 43.0109 38.3211C43.5657 38.3211 44.0186 38.4598 44.3696 38.7372C44.7263 39.0146 44.9273 39.3826 44.9726 39.8411H44.1234C44.095 39.6147 43.9762 39.4165 43.7667 39.2467C43.5572 39.0712 43.2798 38.9834 42.9345 38.9834C42.6118 38.9834 42.3485 39.0684 42.1447 39.2382C41.9409 39.4024 41.839 39.6345 41.839 39.9345C41.839 40.1497 41.8985 40.3252 42.0173 40.461C42.1419 40.5969 42.2919 40.7017 42.4674 40.7753C42.6486 40.8432 42.9005 40.9224 43.2232 41.013C43.6138 41.1206 43.928 41.2282 44.1658 41.3357C44.4036 41.4376 44.6074 41.599 44.7772 41.8198C44.9471 42.0349 45.032 42.3293 45.032 42.7029C45.032 42.9917 44.9556 43.2634 44.8027 43.5182C44.6499 43.7729 44.4234 43.9796 44.1234 44.1381C43.8233 44.2966 43.4695 44.3759 43.0619 44.3759ZM48.1988 44.3928C47.7629 44.3928 47.3666 44.2938 47.0099 44.0956C46.6589 43.8975 46.3815 43.6172 46.1777 43.2549C45.9795 42.8869 45.8805 42.4623 45.8805 41.9811C45.8805 41.5056 45.9824 41.0866 46.1862 40.7243C46.3956 40.3563 46.6787 40.0761 47.0354 39.8836C47.392 39.6854 47.7912 39.5864 48.2327 39.5864C48.6743 39.5864 49.0734 39.6854 49.4301 39.8836C49.7868 40.0761 50.067 40.3535 50.2708 40.7158C50.4803 41.0781 50.585 41.4999 50.585 41.9811C50.585 42.4623 50.4775 42.8869 50.2623 43.2549C50.0529 43.6172 49.767 43.8975 49.4046 44.0956C49.0423 44.2938 48.6404 44.3928 48.1988 44.3928ZM48.1988 43.7135C48.4762 43.7135 48.7366 43.6484 48.98 43.5182C49.2235 43.388 49.4188 43.1926 49.566 42.9322C49.7188 42.6718 49.7953 42.3548 49.7953 41.9811C49.7953 41.6075 49.7217 41.2904 49.5745 41.03C49.4273 40.7696 49.2348 40.5771 48.997 40.4526C48.7592 40.3223 48.5017 40.2572 48.2243 40.2572C47.9412 40.2572 47.6808 40.3223 47.443 40.4526C47.2109 40.5771 47.0241 40.7696 46.8825 41.03C46.741 41.2904 46.6702 41.6075 46.6702 41.9811C46.6702 42.3604 46.7382 42.6803 46.874 42.9407C47.0156 43.2011 47.2024 43.3964 47.4345 43.5267C47.6666 43.6512 47.9214 43.7135 48.1988 43.7135ZM52.3738 38.0323V44.3164H51.6011V38.0323H52.3738ZM57.818 39.6628V44.3164H57.0452V43.6286C56.898 43.8663 56.6914 44.0532 56.4253 44.189C56.1649 44.3192 55.8762 44.3843 55.5591 44.3843C55.1968 44.3843 54.8713 44.3107 54.5826 44.1636C54.2938 44.0107 54.0645 43.7842 53.8947 43.4842C53.7305 43.1841 53.6484 42.819 53.6484 42.3887V39.6628H54.4127V42.2868C54.4127 42.7454 54.5288 43.0992 54.7609 43.3483C54.993 43.5918 55.31 43.7135 55.712 43.7135C56.1253 43.7135 56.4508 43.5861 56.6886 43.3313C56.9263 43.0766 57.0452 42.7058 57.0452 42.2189V39.6628H57.818ZM60.0654 40.2997V43.0426C60.0654 43.2691 60.1135 43.4304 60.2097 43.5267C60.306 43.6172 60.473 43.6625 60.7108 43.6625H61.2797V44.3164H60.5834C60.1531 44.3164 59.8304 44.2173 59.6153 44.0192C59.4002 43.821 59.2926 43.4955 59.2926 43.0426V40.2997H58.6897V39.6628H59.2926V38.4909H60.0654V39.6628H61.2797V40.2997H60.0654ZM62.6152 38.907C62.468 38.907 62.3434 38.8561 62.2415 38.7542C62.1396 38.6523 62.0887 38.5277 62.0887 38.3805C62.0887 38.2333 62.1396 38.1088 62.2415 38.0069C62.3434 37.905 62.468 37.854 62.6152 37.854C62.7567 37.854 62.8756 37.905 62.9718 38.0069C63.0737 38.1088 63.1247 38.2333 63.1247 38.3805C63.1247 38.5277 63.0737 38.6523 62.9718 38.7542C62.8756 38.8561 62.7567 38.907 62.6152 38.907ZM62.9888 39.6628V44.3164H62.216V39.6628H62.9888ZM66.3354 44.3928C65.8995 44.3928 65.5032 44.2938 65.1466 44.0956C64.7956 43.8975 64.5182 43.6172 64.3144 43.2549C64.1162 42.8869 64.0171 42.4623 64.0171 41.9811C64.0171 41.5056 64.119 41.0866 64.3228 40.7243C64.5323 40.3563 64.8154 40.0761 65.172 39.8836C65.5287 39.6854 65.9278 39.5864 66.3694 39.5864C66.811 39.5864 67.2101 39.6854 67.5668 39.8836C67.9234 40.0761 68.2037 40.3535 68.4075 40.7158C68.617 41.0781 68.7217 41.4999 68.7217 41.9811C68.7217 42.4623 68.6141 42.8869 68.399 43.2549C68.1895 43.6172 67.9036 43.8975 67.5413 44.0956C67.179 44.2938 66.777 44.3928 66.3354 44.3928ZM66.3354 43.7135C66.6129 43.7135 66.8733 43.6484 67.1167 43.5182C67.3601 43.388 67.5555 43.1926 67.7027 42.9322C67.8555 42.6718 67.9319 42.3548 67.9319 41.9811C67.9319 41.6075 67.8583 41.2904 67.7111 41.03C67.564 40.7696 67.3715 40.5771 67.1337 40.4526C66.8959 40.3223 66.6383 40.2572 66.3609 40.2572C66.0779 40.2572 65.8174 40.3223 65.5797 40.4526C65.3475 40.5771 65.1607 40.7696 65.0192 41.03C64.8777 41.2904 64.8069 41.6075 64.8069 41.9811C64.8069 42.3604 64.8748 42.6803 65.0107 42.9407C65.1522 43.2011 65.3391 43.3964 65.5712 43.5267C65.8033 43.6512 66.058 43.7135 66.3354 43.7135ZM72.0051 39.5779C72.5712 39.5779 73.0298 39.7506 73.3808 40.0959C73.7318 40.4356 73.9073 40.9281 73.9073 41.5735V44.3164H73.143V41.6839C73.143 41.2197 73.027 40.8658 72.7949 40.6224C72.5627 40.3733 72.2457 40.2487 71.8438 40.2487C71.4361 40.2487 71.1106 40.3761 70.8672 40.6309C70.6294 40.8856 70.5105 41.2565 70.5105 41.7433V44.3164H69.7377V39.6628H70.5105V40.3252C70.6634 40.0874 70.87 39.9034 71.1304 39.7732C71.3965 39.643 71.6881 39.5779 72.0051 39.5779ZM76.8171 44.3928C76.4604 44.3928 76.1405 44.3334 75.8575 44.2145C75.5744 44.09 75.3508 43.9201 75.1866 43.705C75.0224 43.4842 74.9318 43.2323 74.9149 42.9492H75.7131C75.7358 43.1813 75.8433 43.371 76.0358 43.5182C76.2339 43.6654 76.4915 43.739 76.8086 43.739C77.103 43.739 77.3351 43.6738 77.5049 43.5436C77.6748 43.4134 77.7597 43.2492 77.7597 43.0511C77.7597 42.8473 77.6691 42.6973 77.4879 42.601C77.3068 42.4991 77.0265 42.4001 76.6472 42.3038C76.3019 42.2132 76.0188 42.1226 75.798 42.0321C75.5829 41.9358 75.3961 41.7971 75.2376 41.616C75.0847 41.4291 75.0083 41.1857 75.0083 40.8856C75.0083 40.6479 75.079 40.4299 75.2206 40.2318C75.3621 40.0336 75.5631 39.8779 75.8235 39.7647C76.0839 39.6458 76.3811 39.5864 76.7152 39.5864C77.2303 39.5864 77.6464 39.7166 77.9635 39.977C78.2805 40.2374 78.4504 40.5941 78.473 41.047H77.7002C77.6832 40.8036 77.5842 40.6082 77.403 40.461C77.2275 40.3139 76.9897 40.2403 76.6897 40.2403C76.4123 40.2403 76.1915 40.2997 76.0273 40.4186C75.8631 40.5375 75.781 40.6932 75.781 40.8856C75.781 41.0385 75.8292 41.1659 75.9254 41.2678C76.0273 41.364 76.1519 41.4433 76.2991 41.5056C76.4519 41.5622 76.6614 41.6273 76.9275 41.7009C77.2615 41.7915 77.5332 41.882 77.7427 41.9726C77.9522 42.0575 78.1305 42.1878 78.2777 42.3633C78.4305 42.5388 78.5098 42.768 78.5155 43.0511C78.5155 43.3059 78.4447 43.5351 78.3032 43.739C78.1616 43.9428 77.9607 44.1041 77.7002 44.223C77.4455 44.3362 77.1511 44.3928 76.8171 44.3928ZM85.8276 40.1299C85.8276 40.6224 85.6577 41.0328 85.3181 41.3612C84.984 41.6839 84.4717 41.8452 83.781 41.8452H82.6431V44.3164H81.8703V38.3975H83.781C84.4491 38.3975 84.9557 38.5588 85.3011 38.8815C85.6521 39.2042 85.8276 39.6203 85.8276 40.1299ZM83.781 41.2083C84.2113 41.2083 84.5283 41.1149 84.7321 40.9281C84.9359 40.7413 85.0378 40.4752 85.0378 40.1299C85.0378 39.3996 84.6189 39.0344 83.781 39.0344H82.6431V41.2083H83.781ZM88.5204 43.6031L89.964 39.6628H90.7878L88.962 44.3164H88.0618L86.2361 39.6628H87.0683L88.5204 43.6031ZM92.4908 40.2997V43.0426C92.4908 43.2691 92.5389 43.4304 92.6352 43.5267C92.7314 43.6172 92.8984 43.6625 93.1362 43.6625H93.7052V44.3164H93.0088C92.5785 44.3164 92.2559 44.2173 92.0407 44.0192C91.8256 43.821 91.718 43.4955 91.718 43.0426V40.2997H91.1151V39.6628H91.718V38.4909H92.4908V39.6628H93.7052V40.2997H92.4908ZM94.8877 44.3674C94.7405 44.3674 94.616 44.3164 94.5141 44.2145C94.4122 44.1126 94.3612 43.988 94.3612 43.8409C94.3612 43.6937 94.4122 43.5691 94.5141 43.4672C94.616 43.3653 94.7405 43.3144 94.8877 43.3144C95.0293 43.3144 95.1481 43.3653 95.2444 43.4672C95.3463 43.5691 95.3972 43.6937 95.3972 43.8409C95.3972 43.988 95.3463 44.1126 95.2444 44.2145C95.1481 44.3164 95.0293 44.3674 94.8877 44.3674ZM97.1972 43.688H99.2693V44.3164H96.4244V38.3975H97.1972V43.688ZM101.033 40.2997V43.0426C101.033 43.2691 101.081 43.4304 101.177 43.5267C101.273 43.6172 101.44 43.6625 101.678 43.6625H102.247V44.3164H101.551C101.12 44.3164 100.798 44.2173 100.582 44.0192C100.367 43.821 100.26 43.4955 100.26 43.0426V40.2997H99.6568V39.6628H100.26V38.4909H101.033V39.6628H102.247V40.2997H101.033ZM102.894 41.9726C102.894 41.4971 102.991 41.081 103.183 40.7243C103.376 40.362 103.639 40.0817 103.973 39.8836C104.313 39.6854 104.692 39.5864 105.111 39.5864C105.473 39.5864 105.81 39.6713 106.121 39.8411C106.433 40.0053 106.671 40.2233 106.835 40.495V38.0323H107.616V44.3164H106.835V43.4417C106.682 43.7191 106.455 43.9484 106.155 44.1296C105.855 44.3051 105.504 44.3928 105.102 44.3928C104.689 44.3928 104.313 44.2909 103.973 44.0871C103.639 43.8833 103.376 43.5974 103.183 43.2294C102.991 42.8614 102.894 42.4425 102.894 41.9726ZM106.835 41.9811C106.835 41.6301 106.764 41.3244 106.622 41.064C106.481 40.8036 106.288 40.6054 106.045 40.4695C105.807 40.328 105.544 40.2572 105.255 40.2572C104.967 40.2572 104.703 40.3252 104.465 40.461C104.228 40.5969 104.038 40.7951 103.897 41.0555C103.755 41.3159 103.684 41.6216 103.684 41.9726C103.684 42.3293 103.755 42.6407 103.897 42.9067C104.038 43.1672 104.228 43.3681 104.465 43.5097C104.703 43.6455 104.967 43.7135 105.255 43.7135C105.544 43.7135 105.807 43.6455 106.045 43.5097C106.288 43.3681 106.481 43.1672 106.622 42.9067C106.764 42.6407 106.835 42.3321 106.835 41.9811ZM109.168 44.3674C109.021 44.3674 108.896 44.3164 108.795 44.2145C108.693 44.1126 108.642 43.988 108.642 43.8409C108.642 43.6937 108.693 43.5691 108.795 43.4672C108.896 43.3653 109.021 43.3144 109.168 43.3144C109.31 43.3144 109.429 43.3653 109.525 43.4672C109.627 43.5691 109.678 43.6937 109.678 43.8409C109.678 43.988 109.627 44.1126 109.525 44.2145C109.429 44.3164 109.31 44.3674 109.168 44.3674Z" fill="black"/>
<path d="M7.13604 41.3013C-7.51665 22.1503 3.68296 6.67962 11.566 1.5C13.7468 7.6065 10.8845 13.1541 5.70488 22.1503C1.77927 29.2928 5.02332 37.8937 7.13604 41.3013Z" fill="#404042"/>
<path d="M21.5749 4.63425C36.2276 23.7852 25.028 39.2559 17.145 44.4355C14.9641 38.329 17.8264 32.7814 23.0061 23.7852C26.9317 16.6428 23.6876 8.04189 21.5749 4.63425Z" fill="#404042"/>
<path d="M13.201 15.9478C17.4781 8.85988 15.5182 2.68068 14.2914 0C26.1228 9.65045 21.2602 20.7759 16.0633 29.3739C12.3147 35.5758 13.0192 43.1862 13.9506 46.2758C2.22834 36.2437 8.38916 23.9217 13.201 15.9478Z" fill="#81AC40"/>
</svg>
