<svg width="117" height="74" viewBox="0 0 117 74" fill="none" xmlns="http://www.w3.org/2000/svg">
<g clip-path="url(#clip0_406_15333)">
<path d="M55.7933 51.7564L47.926 55.609L45.4719 53.7191L45.7606 56.9175L38.6151 60.1159V60.1886L31.1086 63.6051L30.5312 63.5324L29.3763 64.6955L21.5811 68.3301L9.23874 69.2024L4.11413 65.277L0 18.1002L4.54719 13.1572L15.6626 19.336L20.1376 22.6798L20.6428 23.1886L27.644 27.0413L33.2739 22.6071L36.7384 25.224L36.2332 19.554L45.2554 12.5756V12.5029L48.6477 9.88605L55.7933 16.3556L55.8655 17.2279L61.4954 22.3163L66.1147 20.2809L67.1974 22.9705L67.7027 19.6267L76.797 15.556L76.8692 16.7917L79.3954 14.0295L89.6447 10.0314L91.2326 11.1945L92.8205 8.43222L101.915 4.57957L101.987 4.43419L111.803 0.145386L117 60.5521L103.575 61.7878L95.5632 59.4617L88.2011 57.1356L87.9846 55.3183L85.6749 56.1906L77.3745 54.0098L75.57 52.7014L75.1369 53.0648L65.4651 50.0118L64.9599 48.9941L64.8155 49.721L61.6397 48.9941L57.67 50.9568L57.4534 50.0118L55.7933 51.7564Z" fill="#A41F35"/>
<path d="M64.2382 42.6699L61.712 42.0884L58.0309 43.9057L55.9378 19.4086L61.1345 24.1336L65.2487 22.3163L69.5793 32.7839L70.5898 35.2554L70.8785 35.9823L71.5281 37.4361L71.3116 36.3458L71.0229 35.1827L70.4455 32.6385L69.435 20.6444L75.4257 17.9548L77.952 46.886L68.1358 43.833L64.7434 36.6365C64.6713 36.4185 64.5269 36.2731 63.7329 34.0923L63.2277 32.7839L62.7225 31.4754L63.0112 32.6385L63.2999 34.165C63.8051 36.4185 63.8773 36.6365 63.8773 36.8546L64.2382 42.6699ZM28.5102 41.0707L31.1808 40.053L30.7478 34.8192L27.9328 34.0196L28.5102 41.0707ZM29.9538 57.5717L23.2413 60.6247L20.0655 24.7151L27.7163 29.0039L33.274 24.6424L37.0994 27.4774L38.1821 39.6169L35.5837 42.5245L38.6151 44.778L39.3369 53.2102L32.6244 56.1906L31.6861 45.4322L29.0155 46.5953L29.9538 57.5717ZM83.2931 48.9214L79.4677 46.0137L77.0858 18.8998L80.3338 15.4106L89.4282 11.8487L93.2536 14.6837L94.1197 24.9332L87.2629 26.387L86.5411 18.0275L84.0871 19.1906L86.3246 44.778L88.9951 45.6503L88.2734 37.1454L95.1302 35.6915L96.2129 47.9764L92.9649 51.4656L83.2931 48.9214ZM105.452 55.4636L98.306 53.2829L94.4806 9.44988L101.193 6.54222L103.142 29.2947L105.668 29.0766L103.647 5.37916L110.36 2.3988L115.196 58.2259L108.05 56.1179L106.246 35.2554L103.719 35.4735L105.452 55.4636ZM9.45534 67.385L5.62993 64.4774L1.66016 18.6817L4.90815 15.1925L14.7965 20.6444L18.6219 23.4794L19.6324 35.11L12.7755 36.5638L11.9094 26.2416L9.23881 24.7151L12.2703 59.4617L14.7243 58.0078L13.8582 48.7033L20.7151 47.2495L21.7977 59.6071L18.5497 63.0963L9.45534 67.385ZM44.0284 50.666L40.2752 47.7583L37.8933 20.3536L44.4615 15.2652L46.8434 42.5245L49.4418 41.0707L46.9156 13.2298L48.5035 11.9941L54.2055 17.1552L56.443 42.6699L53.2672 46.1591L44.0284 50.666Z" fill="white"/>
<path d="M45.6886 56.8448L45.472 53.8644C45.472 53.8644 44.6059 52.556 44.5337 51.611C44.3894 50.2299 44.6059 48.8487 45.472 48.2672C47.4208 46.8861 50.3801 47.2495 53.9168 46.0138C56.9483 44.9961 59.8354 42.7426 63.6608 42.3065C67.7028 41.8703 71.8891 45.2868 77.8076 48.1218C80.1173 49.2849 81.8496 50.0845 83.2931 52.4106C84.6645 54.7367 84.8811 55.391 84.5923 59.2436C83.4375 70.22 73.6935 73.6366 69.5072 74C65.3209 74.3635 60.7737 73.7819 60.7737 73.7819C60.7737 73.7819 54.1334 74.1454 49.4418 72.6916C44.7503 71.165 42.0075 65.4951 40.7083 63.8959C40.0587 63.0236 37.6047 60.6975 37.6047 60.6975L45.6886 56.8448ZM58.1031 1.49291e-05C64.1661 -0.508826 64.8878 5.88803 64.8878 5.88803C64.8878 5.88803 65.1765 2.98037 70.4455 2.10807C75.7145 1.23577 78.3129 7.41455 79.0347 9.08646C79.7564 10.7584 80.406 13.5206 80.406 13.5206L79.1068 14.2476L75.931 17.8094C76.725 26.3144 75.7145 29.1493 71.6725 30.167C68.208 31.0393 65.8983 28.7132 64.5991 25.0059C64.6713 27.6955 63.8052 30.8939 60.7015 31.6935C56.8039 32.7112 54.3499 29.7309 53.5559 27.2593C51.6071 21.444 50.8132 20.8625 50.4523 17.0825C49.3696 1.96269 54.7108 0.363473 58.1031 1.49291e-05ZM46.4104 11.6307L44.5337 13.5933C44.5337 13.5933 43.3789 16.501 42.0797 18.1002C43.0902 20.4263 44.3894 23.4067 44.7503 27.9863C44.7503 32.3478 41.5745 34.3104 38.9039 33.7289C35.9446 33.0747 34.5732 30.4578 33.8514 29.0039C33.1297 27.5501 33.1297 30.3851 29.9538 31.112C26.9946 31.7662 23.8187 29.6582 23.3857 24.7151C22.9526 19.7721 28.2938 17.3733 30.6756 19.2633C29.9538 17.446 32.3357 14.3202 33.3462 12.9391C34.3567 11.4853 35.9446 7.55994 39.6978 7.0511C43.5232 6.46956 45.1112 9.81337 46.4104 11.6307Z" fill="#A41F35"/>
<path d="M61.5675 11.4125C61.2066 10.7583 60.99 9.44986 61.1344 9.1591C61.3509 8.86833 60.7735 7.85065 60.7735 7.85065L61.4953 8.21411L61.0622 5.96067L62.0005 7.19643C62.0005 7.19643 61.784 5.37914 61.3509 4.65222C62.4336 5.23375 62.7945 6.39682 62.7223 6.97835C62.7223 7.48719 62.0727 9.23179 61.5675 11.4125ZM74.9203 6.76028C75.7865 8.94102 75.2812 11.1945 74.9203 12.4302V12.3575C74.8481 12.721 74.2707 14.1748 73.4768 14.611C73.4768 14.611 74.1264 13.3025 74.0542 13.0844C73.9098 12.8664 73.3324 13.0117 73.3324 13.0117C74.1264 12.1395 74.2707 10.9037 74.2707 9.81332C74.0542 8.43218 74.4873 7.05104 74.9203 6.76028ZM69.4348 28.495H69.3626C69.2183 28.4224 69.0018 28.3497 68.8574 28.2043L68.28 27.7681C68.2078 27.7681 68.28 27.9135 68.4243 28.1316C66.9808 27.4774 66.1146 26.0235 65.6094 24.4243C65.1042 22.8251 65.032 21.1532 64.8155 19.6267C64.4546 17.0825 63.805 15.1198 63.805 15.1198C63.6606 14.5383 63.0832 12.7937 64.9598 8.14142C65.6816 10.2495 66.8364 11.776 68.713 11.5579C69.5792 11.4125 70.2288 11.5579 70.6618 11.8487C70.8062 11.9214 70.8784 11.9941 70.9506 12.0668C70.8784 12.2121 70.8062 12.2848 70.8062 12.3575C70.8062 12.4302 70.9506 12.3575 71.2393 12.3575L71.3114 12.4302C71.1671 12.5756 71.0949 12.721 70.9506 12.8664L70.8062 12.9391C70.8062 13.0117 71.0949 12.9391 71.4558 12.8664C71.2393 13.0844 71.0949 13.3025 71.0227 13.3752C70.9506 13.4479 71.1671 13.4479 71.4558 13.4479C71.2393 13.7387 71.0949 13.9567 71.0949 13.9567H71.528C71.3114 14.1748 71.1671 14.4656 71.0949 14.5383C71.0227 14.611 71.3114 14.611 71.6001 14.5383C71.4558 14.7563 71.3114 15.0471 71.3114 15.1198C71.3114 15.1925 71.4558 15.1198 71.7445 15.1198C71.528 15.4106 71.3836 15.774 71.3836 15.774C71.3836 15.774 71.6002 15.774 71.8167 15.7013C71.6723 15.9921 71.528 16.2102 71.528 16.3556V16.4283C71.528 16.4283 71.6723 16.4283 71.961 16.3556C71.8167 16.6463 71.7445 16.8644 71.6723 17.0098C71.6723 17.0825 71.8889 17.0098 72.1776 16.9371V17.0098C71.961 17.3006 71.8889 17.5186 71.8889 17.5186H72.1054C71.961 18.2455 71.7445 18.609 71.7445 18.609C72.1054 18.609 72.4663 18.1002 73.1159 18.4636C72.9715 18.609 72.8993 18.7544 72.8993 18.7544C72.8993 18.7544 73.2602 18.8998 73.5489 18.8998C73.3324 18.9725 73.1881 19.1178 73.1159 19.1905C73.1159 19.1905 73.4768 19.4086 73.8377 19.554C73.549 19.6267 73.3324 19.7721 73.2602 19.7721C73.2602 19.7721 73.5489 19.9901 73.9098 20.1355C73.6933 20.2082 73.549 20.2809 73.4768 20.2809C73.4046 20.2809 73.7655 20.499 74.1264 20.6444L73.5489 20.9351C73.5489 20.9351 73.8377 21.1532 74.1264 21.2986C73.9098 21.3713 73.6933 21.444 73.6211 21.444C73.6211 21.444 73.9098 21.7347 74.1985 21.9528H73.7655C73.6933 21.9528 73.982 22.2436 74.1985 22.5343H73.6933C73.6211 22.5343 73.982 22.8251 74.4151 23.1159C74.0542 23.1159 73.6211 23.2613 73.6211 23.2613C73.6211 23.2613 74.0542 23.6974 74.4151 23.9155H73.6211C73.5489 23.9155 73.982 24.2062 74.4151 24.497C74.1264 24.497 73.8377 24.4243 73.6933 24.4243L73.5489 24.3516L73.6211 24.4243H73.5489C73.5489 24.4243 73.9098 24.7878 74.3429 25.0785C73.982 25.0059 73.6211 24.9332 73.4768 24.9332C73.4768 24.9332 73.6933 25.3693 73.982 25.7328C73.6933 25.5874 73.4046 25.442 73.2602 25.442L73.1881 25.3693C73.1881 25.3693 73.4046 25.8782 73.6933 26.1689C73.4046 26.0235 73.0437 25.8782 72.8993 25.8055C72.8993 25.8055 73.1159 26.3143 73.3324 26.6051C73.0437 26.4597 72.6828 26.3143 72.5385 26.2416L72.4663 26.1689C72.4663 26.1689 72.6828 26.6051 72.9715 26.9685C72.6106 26.8231 72.2497 26.6778 72.1054 26.6051C72.0332 26.6051 72.3941 27.1866 72.755 27.4774C72.4663 27.332 72.0332 27.1139 71.8167 27.0412L71.6001 26.8958C71.528 26.8958 71.7445 27.2593 72.0332 27.6228C71.7445 27.5501 71.528 27.4047 71.3114 27.332L71.0227 27.1866L71.0949 27.2593C70.9506 27.2593 71.2393 27.6954 71.6001 27.9862C71.2393 27.8408 70.734 27.6228 70.5175 27.5501L70.3731 27.4774C70.301 27.4774 70.6618 27.9862 70.9506 28.3497C70.5897 28.1316 70.0844 27.8408 69.8679 27.7681L69.7957 27.6954C69.7957 27.6954 69.8679 27.9862 70.0844 28.3497C69.7957 28.2043 69.3626 27.9862 69.1461 27.9135L69.0018 27.8408C69.0018 27.7681 69.1461 28.1316 69.4348 28.495ZM68.8574 20.9351C70.0122 20.7897 71.528 21.2259 72.4663 21.8801C70.2288 18.4636 65.8259 20.2809 66.1146 22.5343C66.1146 22.5343 67.1973 21.2259 68.8574 20.9351ZM61.1344 18.3909C60.4126 18.3909 59.4743 18.7544 59.0412 19.6994C60.4126 19.554 61.4231 19.9174 62.1449 20.6444C62.0727 20.7171 62.0727 20.7897 62.0727 20.7897C62.0727 20.7897 62.2171 20.8624 62.3614 20.8624L62.5058 21.0078C62.3614 21.0805 62.2892 21.1532 62.2171 21.2259L62.7945 21.5167L62.8666 21.5894C62.6501 21.662 62.5058 21.7347 62.3614 21.8074C62.3614 21.8074 62.7223 22.0255 63.0832 22.1709C62.8667 22.2436 62.7223 22.3163 62.6501 22.3163C62.6501 22.3163 62.9388 22.5343 63.2997 22.6797L62.7223 22.9705C62.7223 22.9705 63.011 23.1886 63.2997 23.3339C63.0832 23.4066 62.8667 23.4793 62.7945 23.552C62.7945 23.552 63.0832 23.8428 63.3719 24.0609H62.9388C62.8666 24.0609 63.1554 24.3516 63.3719 24.6424H62.8666C62.7945 24.6424 63.1554 24.9332 63.5884 25.2239C63.2275 25.2239 62.8666 25.3693 62.8666 25.3693C62.8666 25.3693 63.2997 25.8055 63.6606 26.0235H62.8666C62.8666 26.0235 63.2275 26.3143 63.6606 26.6051C63.3719 26.6051 63.1554 26.5324 62.9388 26.5324L62.7945 26.4597L62.8666 26.5324H62.7945C62.7945 26.5324 63.1554 26.8958 63.5884 27.1866C63.2275 27.1139 62.8667 27.0412 62.7223 27.0412C62.7223 27.0412 62.9388 27.4774 63.2275 27.8408C62.9388 27.6954 62.6501 27.5501 62.5058 27.5501H62.4336C62.4336 27.5501 62.6501 27.9862 62.9388 28.3497C62.6501 28.2043 62.2892 28.0589 62.0727 27.9862C62.0727 27.9862 62.2892 28.495 62.5779 28.7858C62.2892 28.6404 61.9283 28.495 61.784 28.4224H61.7118C61.7118 28.4224 61.9283 28.8585 62.2171 29.222C61.8562 29.0766 61.4953 28.9312 61.3509 28.8585H61.2787C61.2787 28.8585 61.5675 29.3673 61.9283 29.7308C61.6396 29.5854 61.2787 29.44 60.99 29.2947L60.8457 29.0766C60.7735 29.0766 60.99 29.44 61.2787 29.8035C60.99 29.7308 60.7735 29.5854 60.557 29.5127L60.2683 29.2947L60.3404 29.3673C60.1961 29.3673 60.4848 29.8035 60.8457 30.0943C60.4848 29.9489 59.9795 29.7308 59.763 29.6581H59.6908C59.6187 29.6581 59.9074 30.0943 60.2683 30.4577C59.9074 30.2396 59.4021 29.9489 59.1856 29.8762L59.0412 29.8035L59.3299 30.385C59.0412 30.2396 58.6082 30.0216 58.3916 29.9489L58.2473 29.8762C58.2473 29.8762 58.3916 30.3123 58.6803 30.6031C58.536 30.5304 58.2473 30.385 58.0308 30.2396L57.4533 29.8035C57.4533 29.8035 57.5255 30.167 57.742 30.4577C54.494 29.44 53.7723 25.1512 53.7001 24.6424C53.4836 23.0432 53.267 22.0982 52.5452 20.4263C52.1122 19.4086 51.5348 18.0275 51.3182 16.4283C51.1017 14.611 51.3182 13.4479 51.5348 11.6306C51.6791 10.5402 51.7513 7.99603 51.9678 7.05104C52.5452 9.66794 52.04 10.3222 52.6896 10.7583C53.1948 5.96067 54.4219 11.6306 57.6699 11.5579C58.2473 11.4852 59.1134 11.2672 59.4743 11.3398C59.5465 11.3398 59.6908 11.3398 59.8352 11.4125C59.6187 11.4852 59.4743 11.4852 59.4743 11.4852L60.0517 11.9214C59.763 11.9941 59.6187 12.1395 59.6187 12.1395C59.6187 12.1395 59.9074 12.3575 60.1961 12.5029L59.6187 12.6483C59.6187 12.6483 59.9074 12.8664 60.1239 13.0844C59.763 13.1571 59.4743 13.2298 59.5465 13.2298L60.1239 13.666C59.8352 13.7387 59.6908 13.884 59.6908 13.884C59.6908 13.884 59.9795 14.1021 60.2683 14.2475C60.1239 14.5383 59.9074 14.611 59.9074 14.611L60.4848 15.0471C60.1961 15.1198 59.9074 15.2652 59.9795 15.2652C59.9795 15.2652 60.3404 15.4833 60.6291 15.6286C60.4126 15.774 60.2683 15.8467 60.2683 15.8467L60.8457 16.1375C60.6291 16.2829 60.4848 16.3556 60.4848 16.3556C60.4848 16.3556 60.8457 16.5009 61.1344 16.6463C60.7735 16.719 60.557 16.8644 60.557 16.8644L61.2787 17.1552C60.9179 17.3006 60.6291 17.4459 60.6291 17.4459C60.6291 17.4459 60.9179 17.664 61.2787 17.8094L60.7013 17.9548C60.7013 17.9548 60.9179 18.1728 61.2066 18.3909H61.1344ZM55.1436 25.9508C55.2158 26.2416 55.2158 24.0609 57.4533 23.4066C59.3299 23.0432 60.9179 23.4793 62.5058 25.8055C61.6396 21.9528 58.6082 21.7347 57.5255 22.0255C56.7315 22.2436 54.4219 22.8978 55.1436 25.9508ZM79.1066 12.5029L79.1788 12.721C79.1788 12.721 78.457 13.666 77.23 13.7387C76.2195 13.7387 75.9308 12.8664 75.9308 12.8664C76.7248 11.8487 77.0135 9.23179 76.9413 7.92334C76.9413 7.92334 77.7352 9.44986 77.7352 10.1768C77.7352 10.6856 77.8074 11.0491 78.0961 11.1945C77.8796 11.4125 77.7352 11.6306 77.7352 11.6306H78.2405C78.024 11.8487 77.8074 12.1395 77.7352 12.2121C77.6631 12.2848 77.9518 12.2848 78.2405 12.2121C78.024 12.4302 77.8796 12.6483 77.8074 12.7937C77.7353 12.7937 78.6736 12.7937 79.1066 12.5029ZM43.2343 26.0962H42.7291L43.4509 26.6778L42.7291 26.8231C42.7291 26.8231 43.1621 27.2593 43.523 27.4774H42.6569C42.6569 27.4774 43.0178 27.7681 43.4509 28.0589C42.9456 27.9862 42.5126 27.9862 42.5126 27.9135C42.5126 27.9135 42.8734 28.277 43.3065 28.5677C42.8734 28.495 42.3682 28.4224 42.4404 28.4224C42.4404 28.4224 42.6569 28.8585 43.0178 29.222C42.6569 29.0766 42.2238 28.8585 42.2238 28.8585C42.2238 28.8585 42.4404 29.2947 42.7291 29.6581C42.3682 29.5127 41.863 29.2947 41.863 29.2947C41.863 29.2947 42.0795 29.8035 42.3682 30.0943C41.9351 29.8762 41.5021 29.7308 41.5021 29.7308C41.5021 29.7308 41.7186 30.167 42.0073 30.5304C41.5742 30.3123 41.069 30.167 41.069 30.167C41.069 30.167 41.4299 30.7485 41.7908 31.1119C41.2855 30.8939 40.5638 30.5304 40.5638 30.5304C40.4916 30.5304 40.7081 30.8939 40.9968 31.2573L39.9863 30.8212C39.9142 30.8212 40.2029 31.2573 40.5638 31.6208C40.0585 31.4027 39.4089 31.1119 39.4089 31.1119C39.4089 31.1119 39.6976 31.6208 39.9863 31.9116C39.4811 31.6208 38.8315 31.2573 38.7593 31.2573L39.048 31.8389C38.615 31.6208 37.9654 31.33 37.9654 31.33C37.9654 31.33 38.1097 31.7662 38.3984 32.0569C37.9654 31.8389 37.1714 31.33 37.1714 31.33C37.0992 31.33 37.2436 31.6935 37.5323 32.0569C37.3879 31.9842 37.1714 31.9116 37.027 31.7662C34.5008 30.0216 34.2121 28.5677 32.9851 25.3693C30.8919 19.8448 31.1085 18.0275 31.2528 17.4459V17.3006C31.1807 17.2279 31.1807 17.0825 31.2528 16.9371C31.3972 16.2102 31.9024 15.556 32.4799 15.0471C33.5625 13.9567 35.1504 13.3025 36.3774 13.2298H36.4496C37.9654 12.8664 39.6254 12.2121 40.2029 10.1768C40.3472 11.6306 39.4811 13.1571 38.4706 13.5206C39.842 13.0844 40.3472 12.721 40.7081 11.6306C40.8525 12.6483 39.9863 13.7387 39.5533 14.0294C40.4916 13.7387 40.9968 13.1571 40.9968 13.1571C40.9968 13.1571 40.9246 14.0294 40.2029 14.611C41.4299 15.8467 39.842 17.5186 39.9863 17.664C39.9863 17.664 40.275 17.8094 40.6359 17.9548C40.3472 18.1002 40.1307 18.2455 40.1307 18.2455C40.1307 18.2455 40.4916 18.3909 40.8525 18.4636C40.6359 18.609 40.4916 18.8271 40.4916 18.8271L41.069 18.9725C40.7803 19.1178 40.6359 19.3359 40.6359 19.3359C40.6359 19.3359 40.9246 19.4086 41.2855 19.4813C40.9968 19.6267 40.7803 19.7721 40.8525 19.8448C40.8525 19.7721 41.2134 19.9174 41.5742 20.0628C41.3577 20.2809 41.1412 20.4263 41.1412 20.4263C41.1412 20.4263 41.5742 20.5717 41.9351 20.6444C41.5742 20.7897 41.3577 21.0078 41.3577 21.0078L42.0795 21.2986C41.7908 21.444 41.5742 21.7347 41.5742 21.662C41.5742 21.662 41.863 21.7347 42.2238 21.8801C42.0795 22.0982 41.9351 22.2436 41.9351 22.2436C41.9351 22.2436 42.296 22.389 42.5847 22.389C42.296 22.5343 42.0795 22.6797 42.1517 22.6797C42.1517 22.6797 42.5126 22.8978 42.8734 23.0432C42.5126 23.1886 42.296 23.3339 42.296 23.3339C42.296 23.3339 42.5847 23.4793 42.9456 23.6974C42.5847 23.7701 42.3682 23.9155 42.3682 23.9155C42.3682 23.9155 42.7291 24.0609 43.09 24.2789L42.5126 24.5697C42.5126 24.5697 42.8013 24.7878 43.09 24.9332C42.8013 25.0059 42.5847 25.1512 42.5847 25.1512C42.5847 25.1512 42.8013 25.3693 43.09 25.5874H42.6569C42.7291 25.5874 43.0178 25.8782 43.2343 26.0962ZM32.6964 18.6817C32.6964 18.6817 33.7069 17.3006 36.2331 17.0825C35.2226 16.5009 32.8407 17.3006 32.6964 18.6817ZM35.6557 28.3497C35.6557 28.3497 35.8 26.3143 36.7383 25.3693C37.4601 24.7151 39.1924 23.9882 41.7186 25.8055C40.5638 23.8428 38.1097 22.8978 36.4496 24.2062C35.2948 25.0785 35.0061 27.1866 35.6557 28.3497ZM32.8407 20.2082C32.8407 20.2082 34.2843 18.2455 37.9654 17.8821C36.5218 17.0825 33.0573 18.2455 32.8407 20.2082ZM39.3367 7.55988C40.2029 7.19643 42.0795 7.55988 42.8013 8.43218C41.5742 8.06872 40.6359 8.2868 40.2029 8.94102C40.1307 8.35949 40.5638 7.85065 40.6359 7.85065C40.4194 7.63258 39.3367 7.55988 39.3367 7.55988ZM30.0258 22.8978C30.1702 22.9705 30.3145 23.0432 30.5311 23.1159H30.0258C30.0258 23.1159 30.3145 23.2613 30.6754 23.4793C30.4589 23.4793 30.3145 23.552 30.3145 23.552C30.3145 23.552 30.6032 23.7701 30.8198 23.9155H30.3867C30.3867 23.9155 30.7476 24.1336 31.0363 24.3516H30.5311L31.1085 24.6424C30.8919 24.6424 30.6754 24.7151 30.6754 24.7151C30.6754 24.7151 30.9641 24.9332 31.2528 25.0785H30.8198L31.3972 25.5147C31.1085 25.442 30.8198 25.5147 30.8198 25.442C30.8198 25.442 31.0363 25.5874 31.325 25.8055C31.0363 25.8055 30.8198 25.8782 30.8198 25.8782C30.8198 25.8782 31.1085 26.1689 31.3972 26.3143C31.0363 26.3143 30.8198 26.3143 30.8198 26.2416C30.8198 26.2416 31.1807 26.5324 31.5415 26.7505C31.1085 26.6778 30.7476 26.6051 30.7476 26.6051C30.7476 26.6051 31.1807 27.0412 31.6859 27.2593C31.2528 27.1139 30.6754 26.9685 30.6754 26.9685L31.325 27.6228C30.8919 27.4774 30.4589 27.332 30.4589 27.2593C30.4589 27.2593 30.6754 27.6228 31.0363 27.9135C30.6032 27.7681 30.2423 27.6954 30.2423 27.6228C30.2423 27.6228 30.5311 27.9862 30.8919 28.277C30.4589 28.1316 29.9536 27.9135 29.9536 27.9135C29.9536 27.9135 30.1702 28.277 30.4589 28.5677C30.0258 28.4224 29.5206 28.277 29.5206 28.277C29.5206 28.277 29.8093 28.6404 30.098 28.9312C29.6649 28.7131 29.0875 28.495 29.0875 28.495C29.0875 28.495 29.2319 28.7858 29.4484 29.0039C29.0153 28.8585 28.5823 28.7131 28.5823 28.6404C28.5101 28.6404 28.6544 28.8585 28.7988 29.0039C28.4379 28.8585 28.0048 28.7131 27.9327 28.6404C27.9327 28.6404 28.0048 28.8585 28.2214 29.0766C27.8605 28.9312 27.4274 28.7858 27.3552 28.7131C27.3552 28.7131 27.4274 28.8585 27.5718 29.0766C27.2109 28.9312 26.85 28.7131 26.85 28.7131C26.85 28.7131 26.85 28.7858 26.9222 28.9312C24.829 27.9862 23.7464 25.3693 23.8907 23.1886C23.8907 23.1886 24.0351 24.2062 24.4681 24.497C24.396 23.334 24.9734 22.389 25.3343 22.0982C24.7568 23.334 25.4064 25.0059 25.4064 25.0059C26.2726 22.7524 28.9431 21.8801 30.0258 22.1709C29.0153 22.2436 27.3552 22.7524 26.3448 24.2062C27.4274 23.4066 29.0153 22.9705 30.0258 22.8978ZM56.0098 57.5717C57.1646 57.2809 57.5255 59.7524 57.5255 59.7524C57.5255 59.7524 57.8142 61.2789 58.536 64.6954C59.0412 67.5304 58.9691 68.6935 57.8864 67.3123C56.7315 65.9312 55.5045 58.7347 56.0098 57.5717ZM49.586 53.719C49.586 53.9371 53.4836 53.5009 53.9166 51.4656C54.2775 49.7937 52.7618 47.6129 52.6174 47.7583C52.6896 47.9764 53.5557 50.8114 52.6174 51.829C51.9678 52.556 49.586 53.5009 49.586 53.719ZM66.1868 66.0766C66.1868 65.7858 65.9703 65.6404 66.0425 65.6404C66.0425 65.6404 65.9703 65.8585 65.8259 66.0039C65.8981 65.7131 65.7538 65.495 65.7538 65.5677C65.7538 65.5677 65.6816 65.7131 65.5372 65.9312C65.6094 65.6404 65.5372 65.4224 65.5372 65.4224L65.1763 65.7858C65.3929 65.495 65.2485 65.2043 65.3207 65.277C65.3207 65.277 65.1763 65.4224 64.8155 65.6404C65.1042 65.3497 65.032 65.0589 65.032 65.1316C65.032 65.1316 64.8155 65.277 64.4546 65.495C64.7433 65.2043 64.6711 64.9135 64.6711 64.9135C64.6711 64.9135 64.4546 65.0589 64.0937 65.277C64.3824 64.9862 64.4546 64.6954 64.4546 64.6954C64.3824 64.6954 64.1659 64.9135 63.7328 65.0589H63.6606C64.1658 64.9135 64.0937 64.4774 64.0937 64.5501C64.0937 64.5501 63.8771 64.6954 63.5163 64.7681H63.2275C63.6606 64.6227 63.7328 64.332 63.7328 64.332C63.7328 64.332 63.4441 64.4774 62.9388 64.4774C63.2997 64.332 63.3719 64.1139 63.3719 64.1139C63.3719 64.1139 63.0832 64.1866 62.5779 64.1866C62.8666 64.1139 63.011 63.8231 63.011 63.8231C63.011 63.8231 62.7223 63.8958 62.3614 63.8958C62.6501 63.8231 62.7945 63.6051 62.7223 63.6051C62.7223 63.6051 62.5058 63.6778 62.0727 63.5324C62.3614 63.4597 62.5058 63.2416 62.5058 63.2416C62.5058 63.2416 62.2171 63.2416 61.8562 63.1689L61.784 63.0962C62.0727 63.0962 62.2892 62.8782 62.2171 62.8782C62.2171 62.8782 61.9283 62.9508 61.5675 62.8055C61.8562 62.7328 62.0005 62.5874 62.0005 62.5874C62.0005 62.5874 61.784 62.5874 61.4231 62.5147V62.442C61.784 62.442 61.9283 62.2966 61.9283 62.2966C61.9283 62.2966 61.6396 62.2966 61.3509 62.0785V62.0059C61.7118 62.1512 61.9283 62.0059 61.9283 62.0059C61.9283 62.0059 61.6396 61.9332 61.2787 61.5697C61.5675 61.7151 61.8562 61.5697 61.784 61.5697C61.784 61.5697 61.5675 61.4243 61.2066 61.1336C61.4953 61.2789 61.784 61.2062 61.784 61.1336C61.784 61.1336 61.5675 60.9882 61.2066 60.552C61.4953 60.7701 61.784 60.6974 61.784 60.6974C61.784 60.6974 61.5675 60.552 61.2787 60.1159C61.5675 60.3339 61.9283 60.2613 61.8562 60.2613C61.8562 60.2613 61.6396 60.1159 61.3509 59.607C61.6396 59.8978 62.0005 59.8251 61.9283 59.8251C61.9283 59.8251 61.7118 59.6797 61.4231 59.2436C61.7118 59.5343 62.0005 59.4617 62.0005 59.4617C62.0005 59.4617 61.784 59.3163 61.4953 58.8074C61.784 59.1709 62.1449 59.1709 62.1449 59.0982C62.1449 59.0982 61.9283 58.8801 61.6396 58.3713C61.8562 58.8074 62.2892 58.8074 62.2171 58.7347C62.2171 58.7347 62.0005 58.5167 61.8562 58.0078L61.784 57.9351C62.0005 58.444 62.4336 58.3713 62.3614 58.3713C62.3614 58.3713 62.2171 58.0805 62.0727 57.7171V57.5717C62.2892 58.0078 62.6501 58.0805 62.5779 58.0805C62.5779 58.0805 62.3614 57.7897 62.3614 57.2809C62.5058 57.5717 62.7945 57.7897 62.7945 57.7897C62.7945 57.7897 62.6501 57.4263 62.7223 57.0628L62.7945 56.9901C62.7945 57.2082 62.8666 57.3536 62.9388 57.4263C63.1554 56.9901 63.5163 56.7721 63.9493 56.6994C64.8154 56.6267 65.8259 56.8448 66.6199 57.2809C67.3417 57.6444 67.9913 58.2259 68.713 58.8801V58.444C68.9296 58.5894 69.0739 58.662 69.0739 58.662C69.0739 58.662 69.0739 58.444 68.7852 58.1532C69.0739 58.2986 69.2183 58.2986 69.2183 58.2986C69.2183 58.2986 69.1461 58.0805 68.713 57.7897C68.9296 57.7897 69.0739 57.6444 69.0739 57.7171C69.0739 57.7171 68.9296 57.5717 68.5687 57.499C68.7852 57.4263 68.9296 57.2809 68.9296 57.2809C68.9296 57.2809 68.713 57.2082 68.2078 57.1355C68.5687 57.1355 68.713 56.9174 68.713 56.9174C68.713 56.9174 68.4965 56.9174 67.9913 56.7721C68.4243 56.7721 68.5687 56.4813 68.5687 56.4813C68.5687 56.4813 68.3522 56.554 67.8469 56.4086C68.2078 56.3359 68.3522 56.1178 68.3522 56.1178C68.3522 56.1178 68.1356 56.1905 67.7026 56.1178C67.9913 55.9725 68.0634 55.7544 68.0634 55.7544C68.0634 55.7544 67.8469 55.8271 67.3417 55.8998C67.7026 55.7544 67.7747 55.3909 67.7747 55.4636C67.7747 55.4636 67.5582 55.609 67.053 55.6817C67.3417 55.4636 67.4138 55.2455 67.4138 55.2455C67.4138 55.2455 67.1973 55.3909 66.6921 55.4636C67.053 55.3182 67.053 55.0275 67.053 55.0275L66.4034 55.2455C66.6921 55.0275 66.6921 54.7367 66.6921 54.8094C66.6921 54.8094 66.5477 54.9548 66.0425 55.1002C66.4034 54.8821 66.3312 54.5913 66.3312 54.5913C66.3312 54.5913 66.1146 54.7367 65.6816 54.8821C65.8981 54.664 65.8981 54.4459 65.8981 54.4459C65.8981 54.4459 65.7538 54.5913 65.3929 54.7367C65.6816 54.5186 65.6816 54.2279 65.6094 54.3005C65.6094 54.3005 65.465 54.4459 65.032 54.5913C65.3207 54.3005 65.2485 54.0825 65.2485 54.0825C65.2485 54.0825 65.1042 54.2279 64.6711 54.3732C65.1042 53.9371 65.3929 52.8467 65.1763 52.2652C64.9598 52.9194 64.5267 53.5009 64.238 53.7917C64.5989 53.1375 64.3824 52.8467 64.3824 52.8467C64.3824 52.8467 64.3102 53.0648 63.9493 53.5736L63.8771 53.6463C64.3102 52.3379 63.9493 49.7937 63.2997 49.2121C63.4441 52.1925 62.7945 53.2102 62.7223 53.2829C62.7223 53.0648 62.6501 52.9194 62.6501 52.9194C62.6501 52.9194 62.5779 53.1375 62.3614 53.5736C62.3614 53.6463 62.2892 53.6463 62.2892 53.719C62.3614 53.4282 62.2171 53.2829 62.2171 53.2829C62.2171 53.2829 62.1449 53.5009 61.8562 54.0098C61.9283 53.719 61.784 53.5009 61.784 53.5009C61.784 53.5009 61.7118 53.719 61.4953 54.1552C61.4953 54.2279 61.4231 54.3005 61.3509 54.3732C61.4953 53.9371 61.2787 53.719 61.3509 53.719C61.3509 53.719 61.2787 53.9371 61.0622 54.3732C61.0622 54.4459 60.99 54.5186 60.9179 54.5913H60.8457C60.99 54.2279 60.8457 53.9371 60.8457 53.9371C60.8457 53.9371 60.7735 54.1552 60.4848 54.5913C60.4126 54.664 60.4126 54.7367 60.3404 54.8094C60.557 54.4459 60.4126 54.1552 60.4126 54.1552C60.4126 54.1552 60.3404 54.3732 59.9795 54.7367C59.9074 54.8094 59.9074 54.8821 59.8352 54.9548C60.0517 54.5913 59.9074 54.3005 59.9074 54.3005C59.9074 54.3005 59.8352 54.5186 59.4743 54.8821L59.2578 55.1002C59.5465 54.664 59.4021 54.3732 59.4021 54.3732C59.4021 54.3732 59.3299 54.5913 58.9691 54.9548C58.8969 55.0275 58.8247 55.1728 58.6803 55.2455C59.0412 54.8094 58.8247 54.4459 58.8247 54.5186C58.8247 54.5186 58.7525 54.7367 58.3916 55.1002C58.3195 55.1728 58.2473 55.3182 58.1751 55.3909C58.536 55.0275 58.3916 54.664 58.3916 54.664C58.3916 54.664 58.2473 54.8821 57.8864 55.2455L57.6699 55.4636C57.8864 55.1002 57.8142 54.8821 57.8142 54.8821C57.8142 54.8821 57.6699 55.1002 57.309 55.4636L57.1646 55.609C57.4533 55.2455 57.3811 54.9548 57.309 54.9548C57.309 54.9548 57.1646 55.1728 56.8037 55.4636L56.6594 55.609C56.9481 55.2455 56.8759 54.9548 56.8759 54.9548C56.8759 54.9548 56.7315 55.1728 56.3707 55.4636C56.2985 55.5363 56.2263 55.609 56.1541 55.609C56.4428 55.2455 56.2985 54.9548 56.2985 54.9548C56.2985 54.9548 56.1541 55.1728 55.7932 55.4636C55.7211 55.5363 55.7211 55.609 55.6489 55.609C55.9376 55.3182 55.8654 55.0275 55.8654 55.0275C55.8654 55.0275 55.7211 55.2455 55.288 55.4636C55.2158 55.5363 55.1436 55.609 54.9993 55.609C55.288 55.3182 55.2158 55.0275 55.2158 55.0275C55.2158 55.0275 55.0715 55.2455 54.6384 55.4636C54.5662 55.5363 54.494 55.5363 54.4219 55.609C54.7106 55.3182 54.7106 55.0275 54.7106 55.0275C54.7106 55.0275 54.5662 55.1728 54.1332 55.4636C54.061 55.5363 53.9888 55.5363 53.9166 55.609C54.2053 55.3182 54.1332 55.0275 54.1332 55.0275C54.1332 55.0275 53.9888 55.2455 53.5557 55.4636L53.4114 55.609H53.3392C53.6279 55.3182 53.5557 55.0275 53.5557 55.0275C53.5557 55.0275 53.4114 55.1728 52.9783 55.4636L52.834 55.609C53.1227 55.3182 53.1227 55.0275 53.1227 55.0275C53.1227 55.0275 52.9783 55.1728 52.4731 55.3909C52.4009 55.4636 52.3287 55.4636 52.1844 55.5363C52.4731 55.2455 52.4731 55.0275 52.4731 55.0275C52.4731 55.0275 52.3287 55.1728 51.8235 55.3909C51.7513 55.4636 51.6791 55.4636 51.6069 55.5363C51.9678 55.3182 51.9678 54.9548 51.9678 54.9548C51.9678 54.9548 51.8235 55.1002 51.3182 55.3182C51.246 55.3909 51.1017 55.3909 50.9573 55.4636C51.3182 55.2455 51.3182 54.8821 51.3182 54.9548C51.3182 54.9548 51.1017 55.1002 50.5964 55.3182C50.5243 55.3909 50.3799 55.3909 50.2356 55.4636C50.5964 55.2455 50.6686 55.0275 50.6686 55.0275C50.6686 55.0275 50.4521 55.1728 49.8747 55.2455H49.6581C49.7303 55.1728 49.8747 55.1002 49.8747 55.0275C48.5755 55.1002 47.7093 54.4459 47.3485 54.1552C46.0493 53.0648 45.3997 51.611 45.3997 50.7387C45.4718 49.5029 46.338 48.1945 47.565 47.9764C48.8642 47.6856 53.4114 47.0314 55.3602 46.1591C57.309 45.2868 60.99 43.6149 62.7945 43.106C64.4546 42.5972 66.6199 42.7426 70.5175 45.1414C70.5175 45.1414 75.6421 47.9764 77.6631 48.8487C78.3848 49.1394 78.9623 49.721 79.3953 50.3025C79.1788 50.2298 78.9623 50.1571 78.9623 50.2298C78.9623 50.2298 79.1066 50.5206 79.5397 50.9567C79.251 50.8114 79.0345 50.8114 79.0345 50.8114C79.0345 50.8114 79.1788 51.0294 79.4675 51.3929C79.251 51.3202 79.1066 51.3929 79.1066 51.3929C79.1066 51.3929 79.3232 51.611 79.7562 51.9017C79.3953 51.6837 79.1066 51.7563 79.1066 51.7563L79.684 52.3379C79.3232 52.2652 79.1066 52.3379 79.1066 52.3379C79.1066 52.3379 79.3953 52.6286 79.9006 52.9921C79.4675 52.7013 79.0345 52.774 79.0345 52.774C79.0345 52.774 79.251 53.0648 79.684 53.4282C79.3232 53.2829 79.0345 53.3556 79.0345 53.3556C79.0345 53.3556 79.251 53.6463 79.684 53.9371C79.251 53.7917 78.9623 53.8644 78.9623 53.8644C78.9623 53.8644 79.1788 54.0098 79.4675 54.3005C79.1788 54.2279 78.9623 54.3005 78.9623 54.3005C78.9623 54.3005 79.1788 54.5913 79.4675 54.8821C79.1066 54.7367 78.8901 54.8094 78.8901 54.8094C78.8901 54.8094 79.1066 55.1002 79.5397 55.3909C79.1066 55.1728 78.8179 55.3182 78.8901 55.2455C78.8901 55.2455 79.1788 55.5363 79.684 55.8998L79.9006 56.1178C79.3953 55.609 78.8901 55.7544 78.8901 55.7544C78.8901 55.7544 79.1788 56.0451 79.684 56.4813C79.1788 56.1178 78.8179 56.1905 78.8179 56.1905C78.8179 56.1905 79.1066 56.4813 79.5397 56.9901L79.6119 57.0628C79.1066 56.6267 78.6736 56.7721 78.6736 56.7721L79.3953 57.499C78.9623 57.2082 78.6014 57.2809 78.6014 57.2809C78.6014 57.2809 78.8179 57.499 79.251 57.8624C78.8179 57.5717 78.5292 57.6444 78.5292 57.6444C78.5292 57.6444 78.8179 57.9351 79.1788 58.3713C78.7457 58.0805 78.3848 58.0805 78.3848 58.0805C78.3848 58.0805 78.6014 58.2986 78.8901 58.662C78.5292 58.444 78.2405 58.5167 78.2405 58.5167L78.8179 59.0982C78.3848 58.8074 78.0961 58.8801 78.0961 58.8801C78.0961 58.8801 78.3848 59.1709 78.7457 59.607C78.3127 59.2436 77.9518 59.3163 78.024 59.3163C78.024 59.3163 78.3127 59.6797 78.6736 60.1886C78.3127 59.6797 77.8796 59.6797 77.8796 59.6797L78.2405 60.4066C77.9518 60.1886 77.7352 60.1886 77.7352 60.1886C77.7352 60.1886 77.9518 60.552 78.3127 61.0609C77.9518 60.6247 77.5909 60.6247 77.5909 60.6247C77.5909 60.6247 77.7352 60.9882 78.024 61.497C77.7352 61.0609 77.3744 60.9882 77.3744 60.9882C77.3744 60.9882 77.4465 61.3516 77.7352 61.8605C77.4465 61.497 77.0857 61.497 77.0857 61.497C77.0857 61.497 77.1578 61.7878 77.3744 62.2239C77.0857 61.9332 76.8691 61.9332 76.8691 61.9332C76.8691 61.9332 76.9413 62.2239 77.0857 62.6601C76.7969 62.3693 76.5804 62.2966 76.5804 62.2966C76.5804 62.2966 76.6526 62.6601 76.7969 63.1689C76.5804 62.8055 76.2195 62.7328 76.2917 62.7328C76.2917 62.7328 76.3639 63.0235 76.4361 63.5324C76.2195 63.0962 75.9308 63.0235 75.9308 63.0235C75.9308 63.0235 76.003 63.3143 76.0752 63.8231C75.9308 63.4597 75.6421 63.3143 75.6421 63.3143V64.0412C75.4977 63.7504 75.2812 63.6051 75.2812 63.6051V64.4047C75.1369 63.9685 74.9203 63.8231 74.9203 63.8231C74.9203 63.8231 74.9203 64.0412 74.8481 64.4047C74.776 64.0412 74.5594 63.8958 74.5594 63.8958C74.5594 63.8958 74.4873 64.1866 74.4151 64.6954C74.3429 64.2593 74.0542 64.1139 74.0542 64.1139C74.0542 64.1139 73.982 64.4047 73.982 64.8408C73.9098 64.4047 73.6933 64.2593 73.6933 64.2593C73.6933 64.2593 73.6211 64.5501 73.5489 64.9135C73.5489 64.5501 73.4046 64.332 73.4046 64.332C73.4046 64.332 73.2602 64.5501 73.1881 64.8408C73.1881 64.5501 73.0437 64.4047 73.0437 64.4047C73.0437 64.4047 72.8993 64.6227 72.6828 65.0589C72.755 64.6954 72.6106 64.4047 72.6106 64.4774C72.6106 64.4774 72.4663 64.6954 72.3219 64.9862C72.3219 64.6227 72.2497 64.4047 72.2497 64.4047C72.2497 64.4047 72.1054 64.5501 71.961 64.8408C71.961 64.4774 71.8889 64.2593 71.8889 64.2593C71.8889 64.2593 71.7445 64.4047 71.6001 64.6954C71.6723 64.4047 71.528 64.1866 71.6001 64.1866C71.6001 64.1866 71.4558 64.4047 71.2393 64.6954C71.3836 64.332 71.3114 64.1139 71.3114 64.1139L70.8784 64.5501C71.0227 64.2593 70.9506 63.9685 70.9506 63.9685C70.9506 63.9685 70.734 64.1139 70.4453 64.332C70.5897 64.0412 70.5175 63.8231 70.5175 63.8231C70.5175 63.8231 70.3009 63.9685 70.0844 64.1866C70.2288 63.8958 70.1566 63.6778 70.2288 63.6778C70.2288 63.6778 70.0844 63.7505 69.8679 63.9685C69.9401 63.7505 69.9401 63.5324 69.9401 63.6051C69.9401 63.6051 69.7957 63.6778 69.6514 63.8231C69.7235 63.6051 69.7235 63.387 69.7235 63.4597L69.4348 63.6051C69.507 63.387 69.507 63.2416 69.507 63.2416C69.507 63.2416 69.4348 63.3143 69.2905 63.387C69.3626 63.2416 69.3626 63.0962 69.3626 63.0962C69.3626 63.0962 69.2183 63.0962 69.0739 63.1689L69.2183 63.0235C69.2183 63.0235 68.7852 62.9508 68.2078 63.2416C68.0634 63.3143 67.9913 63.3143 67.9191 63.387C67.4138 63.6778 66.9086 64.2593 66.9808 65.3497C66.9808 65.3497 66.9808 65.7858 66.6921 66.0039C66.6921 65.7858 66.5477 65.6404 66.5477 65.6404C66.3312 65.7131 66.3312 65.8585 66.1868 66.0766ZM45.4718 54.0825C45.8327 54.664 46.338 55.1728 47.0597 55.6817C49.8025 57.2082 52.4731 57.2082 53.7001 57.2082C53.8444 57.4263 54.2775 57.9351 54.6384 58.0078C54.2053 57.8624 53.6279 57.7171 53.6279 57.7171C53.5557 57.7171 54.1332 58.5167 54.6384 58.662C54.1332 58.5167 53.5557 58.444 53.5557 58.444C53.5557 58.444 54.2775 59.2436 54.7828 59.389C54.2775 59.2436 53.5557 59.0982 53.5557 59.0982C53.5557 59.0982 54.2775 59.8978 54.7828 60.0432C54.2775 59.8978 53.5557 59.7524 53.5557 59.7524C53.5557 59.7524 54.2775 60.552 54.7828 60.6974C54.2775 60.552 53.6279 60.4066 53.5557 60.4066C53.5557 60.4066 54.061 61.0609 54.5662 61.2789C54.1332 61.2062 53.6279 61.0609 53.6279 61.0609C53.6279 61.0609 54.061 61.5697 54.5662 61.8605C54.061 61.7151 53.6279 61.6424 53.6279 61.6424C53.6279 61.6424 54.2775 62.3693 54.8549 62.5874L53.7001 62.1512C53.7001 62.1512 54.1332 62.6601 54.6384 63.0235C54.1332 62.8055 53.7001 62.5874 53.7001 62.5874C53.7001 62.5874 54.2775 63.3143 54.8549 63.7504L53.7001 63.1689C53.7001 63.1689 54.2775 63.9685 54.8549 64.4047C54.2775 64.1139 53.7723 63.8958 53.7723 63.8231C53.7723 63.8231 54.2053 64.4047 54.7106 64.8408L53.8444 64.4047C53.8444 64.4047 54.5662 65.3497 55.1436 65.7131C54.494 65.4224 53.8444 65.1316 53.8444 65.0589C53.7723 65.0589 54.5662 66.0039 55.2158 66.3673C54.5662 66.0766 53.9166 65.7858 53.9166 65.7131C53.9166 65.7131 54.6384 66.5854 55.2158 67.0216C54.5662 66.7308 53.9888 66.44 53.9888 66.44C53.9166 66.44 54.5662 67.2396 55.2158 67.6758C54.7106 67.6031 54.1332 67.385 54.1332 67.385C54.1332 67.385 54.9993 68.33 55.7211 68.6935C55.0715 68.4754 54.3497 68.2573 54.3497 68.1846C54.3497 68.1846 55.2158 69.0569 55.9376 69.3477C55.2158 69.1296 54.3497 68.7662 54.3497 68.7662C54.3497 68.7662 54.8549 69.3477 55.5045 69.7112C54.9993 69.5658 54.4219 69.3477 54.4219 69.275C54.3497 69.275 54.8549 69.8565 55.3602 70.22L55.288 70.2927C54.7828 70.0746 54.2775 69.6385 54.2775 69.6385C54.2053 69.6385 54.4219 70.1473 54.7106 70.5835C54.2775 70.2927 53.8444 69.7838 53.8444 69.7838C53.7723 69.7838 53.8444 70.2927 54.1332 70.7288C53.7723 70.5108 53.3392 69.9292 53.4114 69.8565C53.3392 69.8565 53.3392 70.3654 53.5557 70.8015C53.1948 70.5108 52.9061 69.8565 52.9061 69.8565C52.834 69.8565 52.7618 70.2927 52.9061 70.7288C52.6896 70.3654 52.5452 69.9292 52.5452 69.9292C52.5452 69.9292 52.4731 70.2927 52.4731 70.7288C52.1844 70.3654 51.9678 70.0019 51.9678 69.9292C51.8956 69.9292 51.8956 70.4381 52.04 70.8742C51.6791 70.5108 51.4626 70.0019 51.4626 69.9292C51.3904 69.9292 51.3904 70.3654 51.4626 70.8015C51.1017 70.3654 50.813 69.9292 50.8852 69.8565C50.813 69.8565 50.8852 70.2927 51.0295 70.8015C50.7408 70.3654 50.4521 69.8565 50.4521 69.7838C50.3799 69.7838 50.3799 70.22 50.4521 70.7288C50.1634 70.2927 49.9468 69.7839 49.9468 69.7112C49.8747 69.7112 49.8747 70.1473 49.8747 70.5835C49.6581 70.1473 49.4416 69.7112 49.5138 69.7112C49.4416 69.7112 49.4416 70.1473 49.5138 70.6561C49.2972 70.1473 49.0807 69.6385 49.1529 69.6385C49.0807 69.6385 49.0807 70.0019 49.0807 70.5108C48.8642 70.0746 48.7198 69.6385 48.7198 69.6385C48.6477 69.6385 48.6477 70.0019 48.6477 70.4381C48.4311 70.0019 48.2146 69.4931 48.2868 69.4931C48.2146 69.4931 48.2146 69.8565 48.2146 70.3654C47.9259 69.8565 47.7093 69.275 47.7815 69.2023C47.7815 69.2023 47.7093 69.6385 47.7093 70.1473C47.4928 69.6385 47.3485 68.9842 47.3485 68.9842C47.3485 68.9842 47.2041 69.3477 47.2041 69.7838C47.0597 69.275 46.9876 68.6935 46.9876 68.6935C46.9876 68.6935 46.771 69.0569 46.6989 69.5658C46.5545 68.9842 46.4823 68.4027 46.5545 68.4027C46.5545 68.4027 46.338 68.7662 46.2658 69.275C46.1936 68.6935 46.1214 67.8939 46.1214 67.8939C46.1214 67.8939 45.9049 68.2573 45.7605 68.7662C45.6884 68.1119 45.6162 67.2396 45.6162 67.2396C45.6162 67.2396 45.3275 67.7485 45.1831 68.2573C45.1109 67.6031 45.1109 66.6581 45.1109 66.6581C45.1109 66.6581 44.8944 66.9489 44.7501 67.385V66.222C44.7501 66.222 44.5335 66.5854 44.317 67.0216C44.317 66.3673 44.3892 65.4224 44.3892 65.4224C44.3892 65.4224 44.1005 65.7858 43.8839 66.222C43.8117 65.5677 43.9561 64.8408 44.0283 64.8408C44.0283 64.7681 43.8117 65.1316 43.5952 65.495C43.523 64.8408 43.6674 64.0412 43.6674 64.0412C43.6674 63.9685 43.3787 64.4047 43.1621 64.9135C43.1621 64.2593 43.2343 63.3143 43.2343 63.3143C43.2343 63.3143 42.8734 63.8231 42.6569 64.4047V64.1139C42.5847 63.6051 42.8013 62.7328 42.8734 62.7328C42.8734 62.6601 42.4404 63.0235 42.2238 63.4597C42.2238 63.387 42.2238 63.3143 42.296 63.3143C42.296 62.8782 42.5126 62.0785 42.5847 62.0785C42.5847 62.0785 42.0073 62.442 41.7908 62.8782C41.7908 62.8055 41.863 62.8055 41.863 62.7328C41.9351 62.2966 42.2238 61.497 42.2238 61.497C42.2238 61.497 41.7908 61.7878 41.5021 62.0785C41.6464 61.6424 41.863 60.8428 41.863 60.8428C41.863 60.7701 41.4299 61.0609 41.1412 61.4243C41.2855 60.9882 41.4299 60.1886 41.5021 60.1886C41.5021 60.1159 41.069 60.4066 40.7803 60.7701C40.8525 60.4066 40.7803 59.389 40.8525 59.1709C42.296 58.1532 45.7605 56.8447 45.7605 56.8447L45.4718 54.0825Z" fill="#EF7622"/>
</g>
<defs>
<clipPath id="clip0_406_15333">
<rect width="117" height="74" fill="white"/>
</clipPath>
</defs>
</svg>
