<svg width="237" height="61" viewBox="0 0 237 61" fill="none" xmlns="http://www.w3.org/2000/svg">
<g clip-path="url(#clip0_406_15325)">
<path d="M108.254 5.3257C106.873 3.73011 105.138 2.47869 103.188 1.67084C100.96 0.736781 98.5601 0.283089 96.1448 0.339379H84.6942V34.2251H96.1248C98.3986 34.2519 100.657 33.8499 102.782 33.0401C104.712 32.2774 106.444 31.0869 107.848 29.5583C109.302 28.0266 110.398 26.1918 111.057 24.1858C111.839 21.9469 112.218 19.5869 112.176 17.2156C112.171 15.0184 111.835 12.8345 111.177 10.7381C110.6 8.74633 109.603 6.90099 108.254 5.3257ZM107.908 22.6347C107.42 24.2363 106.586 25.7112 105.465 26.9553C104.4 28.1947 103.066 29.174 101.564 29.8179C99.8441 30.5437 97.991 30.8998 96.1248 30.8631H88.1826V3.56817H96.1248C97.9697 3.52938 99.8015 3.88575 101.497 4.61337C102.98 5.25684 104.31 6.20757 105.398 7.40278C106.497 8.65901 107.33 10.124 107.848 11.7101C108.42 13.4886 108.704 15.3474 108.687 17.2156C108.754 19.054 108.49 20.8895 107.908 22.6347ZM69.429 17.3088V0.279463H72.9108V17.3088C72.9408 19.4645 72.7174 21.6163 72.245 23.7198C71.7899 25.6943 70.9605 27.5632 69.8018 29.2254C68.6656 30.8177 67.1602 32.1106 65.4147 32.9935C63.3337 33.968 61.0544 34.4444 58.7574 34.3848C56.3929 34.4615 54.0463 33.9515 51.927 32.9002C50.1735 31.9669 48.6674 30.6297 47.5331 28.9991C46.4109 27.3255 45.6074 25.4589 45.1631 23.4935C44.6985 21.4586 44.475 19.376 44.4974 17.2889V0.279463H47.9326V17.4287C47.9198 19.1605 48.0826 20.8891 48.4186 22.5881C48.7124 24.149 49.3046 25.6386 50.1628 26.9752C50.986 28.2517 52.1109 29.3058 53.4382 30.0443C55.0432 30.8254 56.8133 31.2068 58.5976 31.156C60.4222 31.2133 62.2309 30.8007 63.8502 29.9577C65.1921 29.2424 66.3218 28.1862 67.1256 26.8954C67.9746 25.5276 68.5658 24.0158 68.8698 22.435C69.1701 20.7534 69.3326 19.0501 69.3558 17.3421L69.429 17.3088ZM227.527 5.50545C226.112 3.87819 224.41 2.52432 222.507 1.51106C220.491 0.514627 218.272 -0.0025569 216.023 -0.0001439C213.862 -0.0119905 211.725 0.449762 209.761 1.35263C207.798 2.25551 206.056 3.57757 204.659 5.22584C203.244 6.86063 202.118 8.72478 201.33 10.7381C200.514 12.7987 200.112 14.9997 200.145 17.2156C200.171 19.3766 200.547 21.519 201.257 23.5601C202.016 25.574 203.124 27.438 204.532 29.0656C205.935 30.6641 207.641 31.9676 209.552 32.9002C211.568 33.8917 213.79 34.3935 216.036 34.3649C218.218 34.364 220.374 33.8893 222.354 32.9735C224.262 32.0649 225.968 30.7837 227.374 29.2054C228.786 27.5985 229.912 25.7611 230.702 23.7731C231.524 21.6863 231.927 19.4581 231.887 17.2156C231.864 15.1001 231.488 13.0032 230.775 11.011C229.994 9.01407 228.897 7.1553 227.527 5.50545ZM227.453 22.3085C226.884 23.9307 226.035 25.4404 224.944 26.7689C223.885 28.0921 222.546 29.1632 221.022 29.9045C219.447 30.7028 217.702 31.1094 215.936 31.0895C214.208 31.0773 212.502 30.6912 210.937 29.9577C209.42 29.2041 208.064 28.1642 206.942 26.8954C205.817 25.5782 204.941 24.0666 204.359 22.435C203.744 20.7596 203.438 18.9869 203.454 17.2023C203.452 15.4692 203.766 13.7503 204.379 12.1295C204.951 10.5084 205.8 8.99913 206.889 7.66907C207.975 6.3793 209.302 5.31414 210.797 4.53348C212.372 3.73187 214.116 3.31871 215.883 3.32851C217.576 3.2995 219.25 3.68097 220.763 4.44028C222.239 5.21685 223.562 6.25697 224.664 7.50929C225.793 8.82378 226.669 10.3361 227.247 11.9697C227.862 13.6427 228.169 15.4133 228.152 17.1957C228.306 18.9308 228.067 20.6782 227.453 22.3085ZM136.555 0.206232L150.914 34.2251H147.22L135.143 5.01946L123.1 34.2251H119.339L133.772 0.206232H136.555ZM29.139 0.139659H32.5542V34.1585H29.2256V6.27104L16.8696 27.8806H14.919L0 0.139659H3.62157L15.9775 23.4202L29.139 0.139659ZM186.052 0.279463H189.254V34.2983H186.591L163.883 6.13123V34.1585H160.674V0.139659H162.977L186.052 28.7661V0.279463Z" fill="url(#paint0_linear_406_15325)"/>
<path d="M0 45.8179H4.09424C4.74904 45.8134 5.40193 45.8894 6.03818 46.0443C6.61738 46.1867 7.16266 46.4424 7.64259 46.7965C8.10458 47.1482 8.47649 47.6046 8.72774 48.128C9.01134 48.7312 9.15038 49.3923 9.13382 50.0586V50.1385C9.15111 50.8135 9.01214 51.4834 8.72774 52.0958C8.47671 52.6193 8.10476 53.0757 7.64259 53.4272C7.16765 53.7701 6.62894 54.0146 6.05815 54.1462C5.4228 54.3067 4.76948 54.385 4.11421 54.3792H1.77085V60.2243H0V45.8179ZM4.21408 52.9679C5.06392 53.03 5.90579 52.7684 6.57076 52.2356C6.8505 51.9594 7.06731 51.6261 7.20634 51.2584C7.34536 50.8907 7.40335 50.4974 7.3763 50.1052V50.0253C7.41901 49.6233 7.3645 49.217 7.21737 48.8404C7.07023 48.4639 6.83476 48.1282 6.53081 47.8617C5.85229 47.3921 5.03839 47.1582 4.21408 47.196H1.75087V52.9412L4.21408 52.9679ZM13.8672 60.4107C13.4035 60.4146 12.9416 60.3518 12.4958 60.2243C12.0894 60.1144 11.7091 59.9243 11.3773 59.6651C11.058 59.4021 10.803 59.0697 10.6317 58.6931C10.4404 58.2548 10.3473 57.7799 10.3588 57.3018C10.3413 56.757 10.4975 56.2208 10.8048 55.7706C11.1102 55.3449 11.5146 54.9998 11.9831 54.7653C12.5159 54.4973 13.0859 54.311 13.6741 54.2128C14.3329 54.0927 15.0016 54.0347 15.6713 54.0397H17.1825V53.2808C17.242 52.6304 17.0542 51.9814 16.6566 51.4633C16.4187 51.26 16.1421 51.1068 15.8435 51.013C15.5449 50.9192 15.2305 50.8867 14.919 50.9174C13.4744 50.9174 12.6622 51.5365 12.5024 52.7881H10.8314C10.8659 52.2503 11.0206 51.727 11.2841 51.2569C11.5196 50.8514 11.8426 50.5034 12.2295 50.2384C12.622 49.9727 13.0596 49.781 13.521 49.6725C14.0077 49.5595 14.5059 49.5036 15.0056 49.5061C15.4942 49.5044 15.9813 49.5602 16.4569 49.6725C16.906 49.7785 17.325 49.9857 17.6818 50.2783C18.0499 50.5934 18.3394 50.9901 18.5273 51.4367C18.764 52.0194 18.8751 52.6455 18.8535 53.2741V60.2243H17.1825V58.8929C16.8253 59.3598 16.3711 59.7437 15.851 60.0179C15.2297 60.3025 14.5501 60.4371 13.8672 60.4107ZM14.0269 59.0793C14.4481 59.0815 14.8673 59.0232 15.2719 58.9062C15.6281 58.8047 15.9622 58.6376 16.2571 58.4135C16.5367 58.2011 16.7644 57.928 16.9229 57.6147C17.0929 57.2811 17.1776 56.9105 17.1692 56.5362V55.2047H15.7179C15.2275 55.2031 14.7377 55.241 14.2533 55.3179C13.8497 55.3775 13.4571 55.4964 13.0883 55.6707C12.7776 55.8221 12.5115 56.0515 12.316 56.3365C12.1304 56.6283 12.0375 56.9695 12.0497 57.3151C12.0159 57.7993 12.1737 58.2775 12.4891 58.6465C12.707 58.8185 12.957 58.9453 13.2245 59.0196C13.4919 59.0939 13.7715 59.1142 14.0469 59.0793H14.0269ZM21.8493 49.6858H23.5203V51.5765C23.6795 51.288 23.8668 51.016 24.0795 50.7643C24.2824 50.5081 24.5225 50.2837 24.7918 50.0986C25.0831 49.9072 25.4019 49.7613 25.7371 49.6658C26.145 49.5528 26.5656 49.4924 26.9887 49.4861V51.0572C26.5063 51.078 26.027 51.1449 25.5574 51.2569C25.1538 51.3509 24.7776 51.5379 24.4589 51.8028C24.1536 52.0798 23.9243 52.4305 23.7932 52.8214C23.6131 53.3342 23.5296 53.8759 23.5469 54.4192V60.2043H21.8759L21.8493 49.6858ZM32.4743 60.3708C32.0816 60.4029 31.6865 60.3505 31.3156 60.2174C30.9447 60.0842 30.6066 59.8732 30.324 59.5985C29.8553 59.0422 29.6171 58.3276 29.6583 57.6013V51.0972H28.1471V49.6858H29.6583V47.2892H31.3293V49.6858H33.7858V51.0972H31.3293V57.4216C31.3293 58.4468 31.7687 58.9594 32.6607 58.9594C32.8973 58.9619 33.1336 58.9419 33.3664 58.8995C33.5644 58.8542 33.76 58.7986 33.9522 58.7331V60.1444C33.7619 60.2142 33.5659 60.2677 33.3664 60.3042C33.0722 60.358 32.7732 60.3803 32.4743 60.3708ZM45.3695 60.4107C44.657 60.4157 43.9507 60.2776 43.2924 60.0046C42.6781 59.7471 42.1231 59.3664 41.6614 58.8862C41.1975 58.3939 40.8355 57.8147 40.5962 57.1819C40.3336 56.5004 40.2026 55.7753 40.2101 55.0449V54.8852C40.2024 54.1412 40.3357 53.4026 40.6029 52.7082C40.852 52.0774 41.2179 51.4992 41.6814 51.004C42.1515 50.5248 42.7159 50.1484 43.3391 49.8988C44.672 49.3753 46.1536 49.3753 47.4866 49.8988C48.1046 50.144 48.663 50.5185 49.1242 50.9973C49.5949 51.4819 49.9618 52.0572 50.2027 52.6883C50.4731 53.3817 50.6065 54.121 50.5955 54.8652V55.025C50.6059 55.7735 50.4725 56.517 50.2027 57.2152C49.9621 57.8519 49.5927 58.4321 49.1176 58.9195C48.6465 59.3896 48.0879 59.7627 47.4732 60.0179C46.8051 60.2874 46.0899 60.4209 45.3695 60.4107ZM45.3695 58.9994C45.8609 59.0065 46.3483 58.9113 46.8009 58.7198C47.2203 58.5361 47.5934 58.2608 47.8926 57.9142C48.1927 57.5436 48.4187 57.1187 48.5584 56.6627C48.7233 56.1395 48.8042 55.5935 48.798 55.0449V54.9051C48.8047 54.3479 48.7238 53.793 48.5584 53.2608C48.4249 52.7982 48.1984 52.3678 47.8926 51.9959C47.5946 51.6525 47.2239 51.3796 46.8075 51.197C46.3573 51.0055 45.872 50.9103 45.3828 50.9174C44.8916 50.9117 44.4045 51.0068 43.9515 51.197C43.5362 51.3752 43.1672 51.6462 42.873 51.9892C42.5692 52.3599 42.3428 52.7877 42.2073 53.2475C42.0414 53.775 41.9605 54.3256 41.9676 54.8785V55.0383C41.9152 56.0776 42.239 57.1009 42.8797 57.9209C43.1908 58.2768 43.5778 58.5585 44.0121 58.7451C44.4465 58.9318 44.9171 59.0186 45.3895 58.9994H45.3695ZM53.2718 51.0972H51.7605V49.6858H53.2718V47.9949C53.2177 47.0944 53.4974 46.2056 54.0573 45.4984C54.3628 45.1874 54.7327 44.947 55.141 44.794C55.5492 44.641 55.986 44.5793 56.4206 44.6129C56.6438 44.6063 56.8671 44.6242 57.0864 44.6662C57.2844 44.7032 57.4801 44.7521 57.6722 44.8127V46.244C57.5015 46.1704 57.3227 46.1167 57.1396 46.0842C56.9202 46.0427 56.6972 46.0227 56.4739 46.0243C56.2503 46.0007 56.0244 46.0341 55.8171 46.1214C55.6099 46.2087 55.4282 46.3471 55.2889 46.5236C55.0365 46.92 54.9154 47.3859 54.9427 47.8551V49.7391H57.5191V51.1504H54.9427V60.2243H53.2651L53.2718 51.0972ZM67.9245 45.8179H72.1785L76.8386 60.2243H73.4301L72.4448 57.0222H67.2388L66.2535 60.2243H63.1911L67.9245 45.8179ZM67.9245 54.7054H71.7391L69.8418 48.4742L67.9245 54.7054ZM82.2776 60.4507C81.5482 60.4553 80.8234 60.336 80.134 60.0978C79.4935 59.8747 78.9064 59.5211 78.4097 59.0593C77.9208 58.5843 77.5394 58.0099 77.2913 57.375C77.0025 56.6468 76.8622 55.8681 76.8785 55.0849V54.9251C76.8678 54.1488 77.0079 53.3778 77.2913 52.655C77.5599 52.0023 77.9585 51.4111 78.463 50.9174C78.9597 50.4428 79.5489 50.0757 80.1939 49.8389C80.8701 49.5829 81.5879 49.4542 82.3109 49.4595C82.9054 49.4593 83.4977 49.5308 84.0751 49.6725C84.6298 49.8048 85.1541 50.0421 85.6196 50.3715C86.0747 50.7087 86.4517 51.1401 86.7247 51.6364C87.0428 52.2286 87.229 52.8827 87.2706 53.5537H84.5078C84.4544 53.0439 84.2179 52.5708 83.8421 52.2222C83.3386 51.8812 82.7298 51.7313 82.1255 51.7997C81.5212 51.8681 80.9613 52.1501 80.5467 52.5951C80.0556 53.2657 79.8195 54.0895 79.881 54.9185V55.0782C79.8152 55.9284 80.0509 56.7745 80.5467 57.4682C80.7823 57.738 81.0761 57.9506 81.406 58.0902C81.7358 58.2297 82.093 58.2925 82.4507 58.2737C83.0012 58.2874 83.5395 58.111 83.9752 57.7744C84.1953 57.5856 84.374 57.3532 84.5 57.092C84.626 56.8308 84.6967 56.5464 84.7075 56.2566H87.3705C87.3403 56.8533 87.1956 57.4387 86.9444 57.9808C86.7132 58.4943 86.3697 58.9493 85.9391 59.3123C85.4835 59.7023 84.9568 60.0007 84.388 60.191C83.7041 60.3954 82.9907 60.4832 82.2776 60.4507ZM93.1623 60.4507C92.4329 60.4553 91.7081 60.336 91.0187 60.0978C90.3711 59.8772 89.777 59.5234 89.2744 59.0593C88.7783 58.5863 88.39 58.0118 88.136 57.375C87.8472 56.6468 87.7069 55.8681 87.7233 55.0849V54.9251C87.712 54.1417 87.8545 53.3636 88.1427 52.635C88.4113 51.9823 88.8099 51.3911 89.3144 50.8974C89.8111 50.4228 90.4003 50.0557 91.0453 49.819C91.7215 49.5629 92.4393 49.4342 93.1623 49.4395C93.7568 49.4393 94.3491 49.5109 94.9265 49.6525C95.4812 49.7848 96.0055 50.0221 96.471 50.3515C96.9261 50.6887 97.3031 51.1202 97.5761 51.6164C97.8942 52.2087 98.0805 52.8627 98.122 53.5337H95.3592C95.3058 53.024 95.0693 52.5509 94.6935 52.2023C94.19 51.8612 93.5812 51.7114 92.9769 51.7797C92.3727 51.8481 91.8127 52.1302 91.3981 52.5751C90.907 53.2457 90.671 54.0695 90.7324 54.8985V55.0583C90.6666 55.9084 90.9023 56.7545 91.3981 57.4482C91.6337 57.718 91.9275 57.9307 92.2573 58.0702C92.5872 58.2098 92.9445 58.2725 93.3021 58.2538C93.8525 58.2674 94.3909 58.0911 94.8267 57.7545C95.0468 57.5656 95.2254 57.3333 95.3514 57.0721C95.4774 56.8109 95.5481 56.5264 95.5589 56.2366H98.2219C98.1917 56.8333 98.047 57.4187 97.7958 57.9608C97.5646 58.4743 97.2211 58.9293 96.7905 59.2923C96.3348 59.6823 95.8082 59.9807 95.2394 60.1711C94.5673 60.3785 93.8654 60.473 93.1623 60.4507ZM104.127 60.4507C103.379 60.456 102.636 60.3321 101.93 60.0845C101.283 59.8588 100.692 59.4954 100.199 59.0194C99.6906 58.5448 99.2948 57.9625 99.0407 57.3151C98.7519 56.5985 98.6115 55.8307 98.6279 55.0583V54.8985C98.6146 54.1263 98.7549 53.3591 99.0407 52.6417C99.2996 51.989 99.6945 51.399 100.199 50.9108C100.695 50.4402 101.282 50.0755 101.923 49.8389C102.603 49.5687 103.329 49.4331 104.06 49.4395C104.725 49.4373 105.386 49.543 106.018 49.7524C106.643 49.9581 107.216 50.3 107.694 50.7536C108.171 51.2071 108.542 51.761 108.78 52.3754C109.077 53.1503 109.219 53.9757 109.2 54.8053V55.6108H101.59C101.576 56.3587 101.837 57.0859 102.323 57.6546C102.79 58.0583 103.372 58.3056 103.987 58.3617C104.602 58.4178 105.219 58.28 105.751 57.9675C106.095 57.7049 106.332 57.3263 106.417 56.9023H109.18C109.119 57.426 108.948 57.9309 108.678 58.3841C108.409 58.8372 108.046 59.2283 107.615 59.532C106.577 60.1946 105.357 60.5158 104.127 60.4507ZM106.344 53.7934C106.349 53.1369 106.112 52.5015 105.678 52.0092C105.459 51.8079 105.202 51.6528 104.922 51.5533C104.641 51.4538 104.344 51.4119 104.047 51.43C103.749 51.4196 103.451 51.469 103.172 51.5753C102.893 51.6817 102.638 51.8428 102.423 52.0492C101.97 52.525 101.691 53.1395 101.63 53.7934H106.344ZM110.338 49.6858H113.241V51.3568C113.536 50.8143 113.964 50.356 114.486 50.0253C115.14 49.6263 115.897 49.4295 116.663 49.4595C117.151 49.4549 117.635 49.5383 118.094 49.7058C118.521 49.8598 118.908 50.1078 119.226 50.4314C119.555 50.8012 119.803 51.2369 119.951 51.7096C120.135 52.2998 120.223 52.9157 120.211 53.5337V60.2243H117.288V53.9398C117.335 53.37 117.18 52.8019 116.849 52.3354C116.665 52.1525 116.444 52.0119 116.2 51.9234C115.956 51.8349 115.696 51.8005 115.438 51.8228C115.134 51.8031 114.829 51.8506 114.545 51.9618C114.262 52.073 114.006 52.2452 113.796 52.4663C113.587 52.6874 113.428 52.9519 113.332 53.2411C113.236 53.5302 113.205 53.837 113.241 54.1395V60.2243H110.318L110.338 49.6858ZM125.816 60.4307C125.359 60.4644 124.9 60.4076 124.465 60.2637C124.029 60.1198 123.627 59.8915 123.28 59.5919C122.973 59.2582 122.737 58.8652 122.587 58.437C122.437 58.0089 122.376 57.5546 122.408 57.102V51.7762H121.076V49.6858H122.408V47.409H125.31V49.6858H127.527V51.7629H125.31V56.8424C125.286 57.179 125.391 57.5121 125.603 57.7744C125.719 57.8864 125.857 57.9723 126.009 58.0262C126.16 58.0802 126.322 58.101 126.482 58.0873C126.681 58.0897 126.879 58.0741 127.075 58.0407C127.25 58.0079 127.422 57.9565 127.587 57.8876V60.1444C127.343 60.2241 127.094 60.2886 126.842 60.3375C126.504 60.4028 126.16 60.4341 125.816 60.4307ZM132.307 60.4507C131.825 60.4546 131.345 60.3758 130.889 60.2177C130.458 60.0686 130.066 59.8226 129.744 59.4987C129.404 59.1474 129.147 58.7242 128.992 58.2604C128.8 57.6856 128.708 57.0822 128.719 56.4763V49.6858H131.622V56.0768C131.579 56.642 131.744 57.2034 132.088 57.6546C132.26 57.8408 132.472 57.986 132.709 58.0793C132.945 58.1726 133.199 58.2118 133.452 58.1938C133.756 58.21 134.06 58.16 134.343 58.0472C134.626 57.9345 134.881 57.7617 135.09 57.5408C135.3 57.3199 135.459 57.0561 135.557 56.7677C135.654 56.4793 135.688 56.1732 135.656 55.8704V49.6858H138.538V60.2243H135.636V58.5733C135.355 59.1192 134.932 59.5791 134.411 59.9048C133.778 60.289 133.047 60.4789 132.307 60.4507ZM140.369 49.6858H143.292V51.683C143.579 51.0319 144.04 50.4723 144.623 50.0653C145.253 49.6794 145.982 49.4851 146.72 49.5061V52.2222C145.839 52.1591 144.96 52.3633 144.197 52.8081C143.883 53.0579 143.638 53.383 143.483 53.753C143.328 54.1231 143.269 54.5262 143.312 54.9251V60.2043H140.389L140.369 49.6858ZM152.519 60.4507C151.771 60.456 151.028 60.3321 150.322 60.0845C149.67 59.8531 149.074 59.4869 148.572 59.0098C148.071 58.5326 147.676 57.9552 147.413 57.3151C147.127 56.5976 146.987 55.8304 147 55.0583V54.8985C146.99 54.1266 147.13 53.36 147.413 52.6417C147.671 51.9974 148.06 51.4135 148.555 50.9266C149.05 50.4398 149.64 50.0604 150.289 49.8123C150.968 49.5421 151.694 49.4065 152.426 49.4129C153.088 49.4107 153.747 49.5164 154.376 49.7258C155.002 49.9314 155.574 50.2734 156.052 50.7269C156.53 51.1805 156.901 51.7344 157.139 52.3487C157.438 53.1232 157.583 53.9487 157.565 54.7786V55.5842H149.962C149.95 56.333 150.213 57.0603 150.701 57.628C150.946 57.8746 151.241 58.0663 151.566 58.1903C151.891 58.3143 152.238 58.3677 152.585 58.347C153.129 58.3885 153.671 58.2454 154.123 57.9409C154.468 57.6795 154.705 57.3004 154.789 56.8757H157.552C157.488 57.3986 157.316 57.9025 157.046 58.3552C156.777 58.8079 156.416 59.1996 155.987 59.5053C154.958 60.1733 153.745 60.5037 152.519 60.4507ZM154.736 53.7934C154.741 53.1369 154.504 52.5015 154.07 52.0092C153.611 51.6278 153.031 51.4224 152.435 51.4297C151.838 51.437 151.264 51.6566 150.815 52.0492C150.357 52.5226 150.076 53.1379 150.016 53.7934H154.736Z" fill="black"/>
</g>
<defs>
<linearGradient id="paint0_linear_406_15325" x1="57.7055" y1="70.6738" x2="175.227" y2="-46.8476" gradientUnits="userSpaceOnUse">
<stop stop-color="#652D8D"/>
<stop offset="1" stop-color="#AB2269"/>
</linearGradient>
<clipPath id="clip0_406_15325">
<rect width="237" height="60.5815" fill="white"/>
</clipPath>
</defs>
</svg>
