<svg width="203" height="51" viewBox="0 0 203 51" fill="none" xmlns="http://www.w3.org/2000/svg">
<g clip-path="url(#clip0_406_15079)">
<path d="M194.35 50.8934H188.472C188.467 42.623 185.198 34.6925 179.383 28.8444C173.568 22.9963 165.681 19.7088 157.457 19.7041V13.7928C167.239 13.8022 176.618 17.7141 183.534 24.6697C190.451 31.6254 194.341 41.0566 194.35 50.8934Z" fill="#3E8EDE"/>
<path d="M182.347 50.9113H176.522C176.519 48.3968 176.024 45.9074 175.065 43.5855C174.105 41.2635 172.7 39.1545 170.929 37.3789C169.159 35.6034 167.058 34.1962 164.746 33.2377C162.435 32.2792 159.958 31.7883 157.457 31.793V25.8817C164.056 25.8911 170.381 28.5312 175.047 33.2231C179.712 37.915 182.338 44.2759 182.347 50.9113Z" fill="#3E8EDE"/>
<path d="M170.202 50.9113H164.306C164.302 49.086 163.579 47.3369 162.295 46.0462C161.012 44.7556 159.272 44.0284 157.457 44.0237V38.0947C160.836 38.0994 164.075 39.4512 166.464 41.8538C168.853 44.2564 170.197 47.5136 170.202 50.9113Z" fill="#3E8EDE"/>
<path fill-rule="evenodd" clip-rule="evenodd" d="M117.387 30.0888L116.981 29.9645L114.739 29.1124L113.962 28.8462C110.661 27.5858 109.249 26.6627 109.143 24.6036C109.101 24.0282 109.179 23.4503 109.37 22.9064C109.561 22.3625 109.863 21.8645 110.255 21.4438C110.809 20.9136 111.463 20.5017 112.179 20.2332C112.895 19.9647 113.658 19.8451 114.421 19.8817H114.739C116.165 19.9558 117.559 20.3288 118.833 20.9769C120.107 21.625 121.232 22.5338 122.135 23.645L126.76 19.5266C125.332 17.794 123.556 16.3845 121.548 15.3902C119.54 14.396 117.346 13.8396 115.11 13.7574C113.31 13.6269 111.503 13.8911 109.815 14.5316C108.126 15.1722 106.596 16.1739 105.331 17.4675C104.387 18.4401 103.652 19.5977 103.172 20.8681C102.692 22.1385 102.478 23.4946 102.541 24.8521C102.806 30.4793 106.955 32.7692 111.897 34.6509L112.303 34.7752L114.58 35.5917L115.357 35.858C118.658 37.1183 120.07 38.0414 120.176 40.1006C120.217 40.6759 120.139 41.2535 119.948 41.7972C119.757 42.3409 119.456 42.839 119.064 43.2604C118.495 43.7538 117.833 44.1261 117.117 44.355C116.4 44.5838 115.646 44.6643 114.898 44.5917H114.563C111.032 44.361 108.208 41.574 105.578 39.6213L100.935 43.6864C102.548 45.722 104.554 47.4083 106.833 48.6438C109.111 49.8793 111.614 50.6385 114.192 50.8757C115.995 51.0089 117.805 50.746 119.497 50.1053C121.188 49.4647 122.721 48.4616 123.989 47.1657C124.929 46.1915 125.661 45.0333 126.138 43.763C126.614 42.4926 126.826 41.1373 126.76 39.7811C126.495 34.2604 122.33 31.9527 117.387 30.0888ZM38.976 13.6509C35.3002 13.6368 31.703 14.7201 28.6398 16.7635C25.5767 18.807 23.1856 21.7186 21.7692 25.1297C20.3529 28.5407 19.975 32.2978 20.6836 35.9249C21.3921 39.5521 23.1551 42.8862 25.7494 45.505C28.3436 48.1238 31.6523 49.9095 35.2565 50.6358C38.8607 51.3621 42.5981 50.9965 45.9954 49.5852C49.3928 48.1739 52.2972 45.7803 54.3409 42.7078C56.3845 39.6353 57.4755 36.0219 57.4755 32.3254C57.4755 27.3849 55.5287 22.6457 52.0614 19.1456C48.5941 15.6455 43.8888 13.6697 38.976 13.6509ZM38.976 45.4438C35.5924 45.36 32.3792 43.9335 30.0377 41.4757C27.6962 39.018 26.4166 35.7285 26.4783 32.3254C26.4168 28.9133 27.7036 25.616 30.0565 23.1567C32.4093 20.6974 35.6361 19.2771 39.029 19.2071C42.4218 19.2771 45.6486 20.6974 48.0015 23.1567C50.3543 25.616 51.6411 28.9133 51.5797 32.3254C51.61 34.0194 51.308 35.7028 50.6908 37.2792C50.0736 38.8557 49.1534 40.2943 47.9827 41.5127C46.8121 42.7312 45.414 43.7055 43.8686 44.3801C42.3231 45.0546 40.6605 45.4161 38.976 45.4438ZM79.4348 13.6509C75.762 13.6509 72.1716 14.7461 69.1178 16.7981C66.064 18.8501 63.6838 21.7667 62.2783 25.179C60.8727 28.5913 60.505 32.3462 61.2215 35.9687C61.938 39.5912 63.7067 42.9187 66.3037 45.5304C68.9008 48.142 72.2097 49.9206 75.8119 50.6412C79.4142 51.3617 83.148 50.9919 86.5412 49.5785C89.9345 48.1651 92.8347 45.7715 94.8752 42.7005C96.9157 39.6295 98.0049 36.0189 98.0049 32.3254C98.0049 27.3726 96.0484 22.6227 92.5658 19.1205C89.0833 15.6184 84.3599 13.6509 79.4348 13.6509ZM79.4348 45.4438C76.0419 45.3738 72.8151 43.9534 70.4623 41.4942C68.1094 39.0349 66.8226 35.7376 66.8841 32.3254C66.8208 30.627 67.0987 28.9331 67.7014 27.3452C68.304 25.7573 69.219 24.3079 70.3915 23.0837C71.564 21.8596 72.97 20.8858 74.5253 20.2207C76.0807 19.5556 77.7535 19.2128 79.4436 19.2128C81.1338 19.2128 82.8065 19.5556 84.3619 20.2207C85.9173 20.8858 87.3232 21.8596 88.4957 23.0837C89.6683 24.3079 90.5832 25.7573 91.1858 27.3452C91.7885 28.9331 92.0665 30.627 92.0031 32.3254C92.0646 35.7406 90.7753 39.0406 88.4187 41.5003C86.062 43.9601 82.8307 45.3785 79.4348 45.4438ZM19.6645 13.8994H13.2038C9.70339 13.9041 6.34766 15.3046 3.87247 17.7937C1.39728 20.2828 0.00467037 23.6574 0 27.1775L0 50.8402H5.94878V28.7574C5.94878 26.4034 6.87867 24.1458 8.53388 22.4813C10.1891 20.8168 12.434 19.8817 14.7749 19.8817H19.6469L19.6645 13.8994ZM151.403 19.7396V13.7574H137.687V0H131.685V37.4734C131.69 40.9935 133.083 44.3681 135.558 46.8572C138.033 49.3463 141.389 50.7468 144.889 50.7515H151.35V44.7692H146.513C145.354 44.7692 144.206 44.5397 143.135 44.0936C142.065 43.6476 141.092 42.9938 140.272 42.1696C139.452 41.3454 138.802 40.3669 138.359 39.2901C137.915 38.2132 137.687 37.0591 137.687 35.8935V19.7396H151.403Z" fill="#0033A0"/>
<path d="M198.799 46.1539V49.4557H199.381V48.1598H199.84C200.057 48.145 200.275 48.1814 200.476 48.2663C200.593 48.3523 200.685 48.4688 200.741 48.6034C200.797 48.7379 200.815 48.8854 200.793 49.0296V49.4734H201.341C201.33 49.4147 201.33 49.3546 201.341 49.2959V48.7989C201.336 48.6131 201.274 48.4334 201.164 48.2841C201.098 48.1939 201.013 48.1188 200.916 48.0638C200.818 48.0087 200.711 47.9749 200.599 47.9646C200.767 47.9442 200.929 47.8898 201.076 47.8048C201.182 47.7332 201.267 47.6347 201.323 47.5194C201.378 47.404 201.403 47.2759 201.394 47.148C201.41 46.9719 201.368 46.7954 201.276 46.645C201.184 46.4945 201.045 46.3783 200.882 46.3137C200.592 46.217 200.287 46.1749 199.981 46.1894L198.799 46.1539ZM200.793 47.148C200.8 47.2587 200.771 47.3686 200.711 47.4613C200.65 47.5541 200.562 47.6247 200.458 47.6628C200.277 47.695 200.092 47.695 199.911 47.6628H199.381V46.5089H199.876C200.117 46.4924 200.36 46.535 200.582 46.6332C200.658 46.6853 200.718 46.7578 200.756 46.8425C200.793 46.9271 200.806 47.0207 200.793 47.1125M203 47.7693C203 46.9736 202.686 46.2106 202.126 45.648C201.567 45.0854 200.808 44.7693 200.017 44.7693C199.226 44.7693 198.467 45.0854 197.907 45.648C197.348 46.2106 197.034 46.9736 197.034 47.7693C197.027 48.1647 197.101 48.5573 197.249 48.9234C197.398 49.2895 197.619 49.6215 197.899 49.8995C198.176 50.1807 198.506 50.4039 198.869 50.5563C199.233 50.7086 199.623 50.787 200.017 50.787C200.411 50.787 200.801 50.7086 201.164 50.5563C201.528 50.4039 201.858 50.1807 202.135 49.8995C202.419 49.6236 202.643 49.2924 202.795 48.9261C202.947 48.5598 203.023 48.1661 203.018 47.7693M200.034 45.1776C200.715 45.1823 201.366 45.4574 201.845 45.9429C202.325 46.4284 202.594 47.085 202.594 47.7693C202.59 48.4363 202.324 49.0747 201.853 49.5444C201.615 49.786 201.331 49.9777 201.019 50.1085C200.707 50.2393 200.373 50.3067 200.034 50.3067C199.696 50.3067 199.362 50.2393 199.05 50.1085C198.737 49.9777 198.454 49.786 198.216 49.5444C197.747 49.0736 197.481 48.436 197.475 47.7693C197.475 47.085 197.744 46.4284 198.223 45.9429C198.703 45.4574 199.354 45.1823 200.034 45.1776Z" fill="#0033A0"/>
</g>
<defs>
<clipPath id="clip0_406_15079">
<rect width="203" height="51" fill="white"/>
</clipPath>
</defs>
</svg>
