<svg width="26" height="26" viewBox="0 0 26 26" fill="none" xmlns="http://www.w3.org/2000/svg">
<path d="M15.5362 15.1741L16.6891 15.2952V24.6797L13.5045 21.2791V15.8691L14.4295 16.3208L15.5362 15.1741ZM10.4606 15.1741L9.30707 15.2952V24.6797L12.4916 21.2791V15.8691L11.5667 16.3208L10.4606 15.1741ZM19.194 9.2947L19.5671 10.5934L18.4471 11.3485L18.3533 12.6978L17.0426 13.0241L16.494 14.2588L15.1504 14.1168L14.2122 15.0861L12.9984 14.4931L11.7846 15.0861L10.8465 14.1136L9.50278 14.2556L8.95419 13.0209L7.64353 12.6978L7.54973 11.3504L6.42655 10.5927L6.7997 9.29409L6.00781 8.20005L6.80223 7.10724L6.42655 5.81115L7.5472 5.05604L7.64099 3.70855L8.95419 3.38548L9.50278 2.15084L10.8465 2.29272L11.7846 1.32031L12.9984 1.91329L14.2122 1.32031L15.1504 2.29272L16.494 2.15084L17.0426 3.38548L18.3533 3.71175L18.4471 5.05918L19.5671 5.8143L19.194 7.11298L19.989 8.20005L19.194 9.2947ZM16.6948 8.20005C16.6948 7.47449 16.4797 6.76521 16.0766 6.16192C15.6735 5.55864 15.1005 5.08843 14.4302 4.81077C13.7598 4.5331 13.0222 4.46045 12.3106 4.60201C11.599 4.74356 10.9453 5.09295 10.4322 5.60601C9.91919 6.11906 9.56979 6.77273 9.42824 7.48436C9.28669 8.19598 9.35934 8.93361 9.637 9.60394C9.91466 10.2743 10.3849 10.8472 10.9882 11.2503C11.5914 11.6534 12.3007 11.8686 13.0263 11.8686C13.9988 11.8671 14.931 11.4801 15.6187 10.7924C16.3063 10.1048 16.6933 9.17254 16.6948 8.20005ZM13.0263 5.54506C12.5012 5.54506 11.9879 5.70077 11.5513 5.99249C11.1147 6.28422 10.7744 6.69886 10.5734 7.18399C10.3725 7.66911 10.3199 8.20293 10.4224 8.71794C10.5248 9.23295 10.7776 9.70601 11.1489 10.0773C11.5202 10.4486 11.9933 10.7015 12.5083 10.8039C13.0233 10.9064 13.5571 10.8538 14.0423 10.6529C14.5274 10.4519 14.942 10.1116 15.2338 9.67505C15.5255 9.23845 15.6812 8.72515 15.6812 8.20005C15.6792 7.49671 15.3988 6.82278 14.9013 6.32561C14.4038 5.82845 13.7296 5.5485 13.0263 5.54699V5.54506Z" fill="black"/>
</svg>
