<svg width="88" height="16" viewBox="0 0 88 16" fill="none" xmlns="http://www.w3.org/2000/svg">
<path d="M0.563488 15V0.966278H2.10814L10.1705 12.3063L9.47349 12.3816V0.966278H11.3384V15H9.79372L1.76907 3.58465L2.40954 3.5093V15H0.563488ZM18.9351 15.226C17.9555 15.226 17.0827 14.9937 16.3167 14.5291C15.5506 14.0644 14.9479 13.4302 14.5083 12.6265C14.0688 11.8102 13.849 10.8998 13.849 9.89512C13.849 8.87791 14.0625 7.97372 14.4895 7.18256C14.929 6.39139 15.5193 5.76977 16.2602 5.31767C17.0137 4.85302 17.8551 4.6207 18.7844 4.6207C19.5379 4.6207 20.2034 4.75884 20.7811 5.03512C21.3713 5.29884 21.8674 5.66302 22.2693 6.12767C22.6837 6.57977 22.9976 7.10093 23.2111 7.69116C23.4372 8.26884 23.5502 8.87163 23.5502 9.49953C23.5502 9.63767 23.5376 9.79465 23.5125 9.97046C23.5 10.1337 23.4811 10.2907 23.456 10.4414H15.1299V8.93442H22.4388L21.6099 9.61256C21.723 8.95953 21.6602 8.37558 21.4216 7.8607C21.183 7.34581 20.8313 6.93767 20.3667 6.63628C19.902 6.33488 19.3746 6.18419 18.7844 6.18419C18.1941 6.18419 17.6541 6.33488 17.1644 6.63628C16.6746 6.93767 16.2916 7.37093 16.0153 7.93605C15.7516 8.4886 15.6448 9.14791 15.6951 9.91395C15.6448 10.6549 15.7579 11.3079 16.0341 11.873C16.323 12.4256 16.7248 12.8588 17.2397 13.1728C17.7672 13.4742 18.3386 13.6249 18.9539 13.6249C19.632 13.6249 20.2034 13.4679 20.6681 13.154C21.1327 12.84 21.5095 12.4381 21.7983 11.9484L23.2676 12.7019C23.0667 13.1665 22.7527 13.5935 22.3258 13.9828C21.9113 14.3595 21.4153 14.6609 20.8376 14.887C20.2725 15.113 19.6383 15.226 18.9351 15.226ZM24.5013 15L28.0615 9.91395L24.5202 4.84674H26.6299L29.6627 9.25465H28.589L31.5841 4.84674H33.7127L30.1713 9.91395L33.6939 15H31.5841L28.589 10.5921H29.6439L26.6488 15H24.5013ZM39.5751 15.226C38.5955 15.226 37.7227 14.9937 36.9567 14.5291C36.1906 14.0644 35.5878 13.4302 35.1483 12.6265C34.7088 11.8102 34.489 10.8998 34.489 9.89512C34.489 8.87791 34.7025 7.97372 35.1295 7.18256C35.569 6.39139 36.1592 5.76977 36.9002 5.31767C37.6537 4.85302 38.4951 4.6207 39.4244 4.6207C40.1778 4.6207 40.8434 4.75884 41.4211 5.03512C42.0113 5.29884 42.5074 5.66302 42.9092 6.12767C43.3237 6.57977 43.6376 7.10093 43.8511 7.69116C44.0772 8.26884 44.1902 8.87163 44.1902 9.49953C44.1902 9.63767 44.1776 9.79465 44.1525 9.97046C44.1399 10.1337 44.1211 10.2907 44.096 10.4414H35.7699V8.93442H43.0788L42.2499 9.61256C42.363 8.95953 42.3002 8.37558 42.0616 7.8607C41.823 7.34581 41.4713 6.93767 41.0067 6.63628C40.542 6.33488 40.0146 6.18419 39.4244 6.18419C38.8341 6.18419 38.2941 6.33488 37.8044 6.63628C37.3146 6.93767 36.9316 7.37093 36.6553 7.93605C36.3916 8.4886 36.2848 9.14791 36.3351 9.91395C36.2848 10.6549 36.3978 11.3079 36.6741 11.873C36.963 12.4256 37.3648 12.8588 37.8797 13.1728C38.4071 13.4742 38.9785 13.6249 39.5939 13.6249C40.272 13.6249 40.8434 13.4679 41.3081 13.154C41.7727 12.84 42.1495 12.4381 42.4383 11.9484L43.9076 12.7019C43.7067 13.1665 43.3927 13.5935 42.9658 13.9828C42.5513 14.3595 42.0553 14.6609 41.4776 14.887C40.9125 15.113 40.2783 15.226 39.5751 15.226ZM46.4743 15V4.84674H48.1885V6.71163L48.0001 6.44791C48.2387 5.87023 48.6029 5.44326 49.0927 5.16698C49.5825 4.87814 50.179 4.73372 50.8822 4.73372H51.5039V6.39139H50.6185C49.9027 6.39139 49.325 6.61744 48.8855 7.06953C48.446 7.50907 48.2262 8.13698 48.2262 8.95326V15H46.4743ZM57.7693 15.226C56.7772 15.226 55.8919 14.9937 55.1133 14.5291C54.3472 14.0644 53.7444 13.4302 53.3049 12.6265C52.8653 11.8228 52.6456 10.9186 52.6456 9.91395C52.6456 8.89674 52.8653 7.99256 53.3049 7.20139C53.7444 6.41023 54.3472 5.78233 55.1133 5.31767C55.8919 4.85302 56.7772 4.6207 57.7693 4.6207C58.4349 4.6207 59.0565 4.74 59.6342 4.9786C60.2119 5.21721 60.7205 5.53744 61.16 5.9393C61.5995 6.34116 61.9198 6.81209 62.1207 7.35209L60.5572 8.10558C60.3186 7.57814 59.9544 7.15116 59.4646 6.82465C58.9749 6.48558 58.4098 6.31605 57.7693 6.31605C57.1539 6.31605 56.5951 6.47302 56.0928 6.78698C55.603 7.10093 55.2137 7.52791 54.9249 8.06791C54.636 8.60791 54.4916 9.22953 54.4916 9.93279C54.4916 10.6109 54.636 11.2263 54.9249 11.7788C55.2137 12.3188 55.603 12.7458 56.0928 13.0598C56.5951 13.3737 57.1539 13.5307 57.7693 13.5307C58.4098 13.5307 58.9749 13.3674 59.4646 13.0409C59.9544 12.7019 60.3186 12.256 60.5572 11.7035L62.1207 12.4947C61.9198 13.0221 61.5995 13.493 61.16 13.9074C60.7205 14.3093 60.2119 14.6295 59.6342 14.8681C59.0565 15.1067 58.4349 15.226 57.7693 15.226ZM64.4102 15V4.84674H66.162V15H64.4102ZM64.4102 3.22674V0.966278H66.162V3.22674H64.4102ZM72.5159 15.226C71.4987 15.226 70.6133 14.9749 69.8598 14.4726C69.1064 13.9702 68.5726 13.2921 68.2587 12.4381L69.6526 11.76C69.9415 12.3628 70.3371 12.84 70.8394 13.1916C71.3417 13.5433 71.9005 13.7191 72.5159 13.7191C73.0685 13.7191 73.5268 13.5872 73.891 13.3235C74.2552 13.0598 74.4373 12.7144 74.4373 12.2874C74.4373 11.986 74.3494 11.7474 74.1736 11.5716C74.0103 11.3833 73.8094 11.2388 73.5708 11.1384C73.3322 11.0253 73.1124 10.9437 72.9115 10.8935L71.3857 10.4602C70.4689 10.1965 69.7971 9.81977 69.3701 9.33C68.9557 8.84023 68.7485 8.26884 68.7485 7.61581C68.7485 7.01302 68.8991 6.49186 69.2005 6.05232C69.5145 5.60023 69.9352 5.2486 70.4626 4.99744C71.0026 4.74628 71.6054 4.6207 72.271 4.6207C73.1626 4.6207 73.9601 4.84674 74.6633 5.29884C75.3791 5.75093 75.8878 6.38512 76.1891 7.20139L74.7575 7.8607C74.5315 7.33326 74.1924 6.91884 73.7403 6.61744C73.2882 6.30349 72.7796 6.14651 72.2145 6.14651C71.6996 6.14651 71.2915 6.27837 70.9901 6.54209C70.6887 6.79326 70.538 7.11349 70.538 7.50279C70.538 7.79163 70.6133 8.03023 70.764 8.2186C70.9147 8.39442 71.0968 8.53256 71.3103 8.63302C71.5238 8.72093 71.731 8.79628 71.9319 8.85907L73.5896 9.34884C74.4185 9.58744 75.0589 9.95791 75.511 10.4602C75.9757 10.9626 76.208 11.5653 76.208 12.2686C76.208 12.8337 76.051 13.3423 75.7371 13.7944C75.4231 14.2465 74.9898 14.5981 74.4373 14.8493C73.8847 15.1005 73.2443 15.226 72.5159 15.226ZM83.1729 15.226C82.1934 15.226 81.3206 14.9937 80.5545 14.5291C79.7885 14.0644 79.1857 13.4302 78.7462 12.6265C78.3066 11.8102 78.0868 10.8998 78.0868 9.89512C78.0868 8.87791 78.3003 7.97372 78.7273 7.18256C79.1668 6.39139 79.7571 5.76977 80.498 5.31767C81.2515 4.85302 82.0929 4.6207 83.0222 4.6207C83.7757 4.6207 84.4413 4.75884 85.0189 5.03512C85.6092 5.29884 86.1052 5.66302 86.5071 6.12767C86.9215 6.57977 87.2355 7.10093 87.4489 7.69116C87.675 8.26884 87.788 8.87163 87.788 9.49953C87.788 9.63767 87.7755 9.79465 87.7503 9.97046C87.7378 10.1337 87.7189 10.2907 87.6938 10.4414H79.3678V8.93442H86.6766L85.8478 9.61256C85.9608 8.95953 85.898 8.37558 85.6594 7.8607C85.4208 7.34581 85.0692 6.93767 84.6045 6.63628C84.1399 6.33488 83.6124 6.18419 83.0222 6.18419C82.432 6.18419 81.892 6.33488 81.4022 6.63628C80.9124 6.93767 80.5294 7.37093 80.2531 7.93605C79.9894 8.4886 79.8827 9.14791 79.9329 9.91395C79.8827 10.6549 79.9957 11.3079 80.272 11.873C80.5608 12.4256 80.9627 12.8588 81.4775 13.1728C82.005 13.4742 82.5764 13.6249 83.1917 13.6249C83.8699 13.6249 84.4413 13.4679 84.9059 13.154C85.3706 12.84 85.7473 12.4381 86.0362 11.9484L87.5055 12.7019C87.3045 13.1665 86.9906 13.5935 86.5636 13.9828C86.1492 14.3595 85.6531 14.6609 85.0755 14.887C84.5103 15.113 83.8762 15.226 83.1729 15.226Z" fill="#373737"/>
</svg>
